<svg id="SvgjsSvg1053" xmlns="http://www.w3.org/2000/svg" version="1.1" xmlns:xlink="http://www.w3.org/1999/xlink" xmlns:svgjs="http://svgjs.com/svgjs" width="44" height="44" viewBox="0 0 44 44"><title>Shape</title><desc>Created with Avocode.</desc><defs id="SvgjsDefs1054"></defs><path id="SvgjsPath1055" d="M190.57 4892.61C190.57 4886.509999999999 186.54 4882.089999999999 181 4882.089999999999C175.46 4882.089999999999 171.43 4886.509999999999 171.43 4892.61C171.43 4895.58 172.25 4898.65 173.83 4900.99C168.87 4902.62 164.74 4905.74 164.74 4909.349999999999C164.74 4909.589999999999 164.83 4909.82 165 4909.999999999999C169.21 4914.509999999999 174.89 4916.999999999999 181 4916.999999999999C187.11 4916.999999999999 192.79 4914.509999999999 197 4909.999999999999C197.17 4909.819999999999 197.26 4909.589999999999 197.26 4909.349999999999C197.26 4905.74 193.13 4902.62 188.17 4900.99C189.75 4898.65 190.57 4895.58 190.57 4892.61ZM166.67 4908.99C166.98999999999998 4906.29 170.79 4903.84 175.13 4902.58C176.65 4904.09 178.60999999999999 4905.04 181 4905.04C183.39 4905.04 185.35 4904.09 186.87 4902.58C191.21 4903.84 195.01 4906.29 195.33 4908.99C191.51000000000002 4912.92 186.44 4915.09 181 4915.09C175.56 4915.09 170.49 4912.92 166.67 4908.99ZM181 4884C186.02 4884 188.65 4888.33 188.65 4892.61C188.65 4896.98 186.28 4903.13 181 4903.13C175.72 4903.13 173.35 4896.9800000000005 173.35 4892.61C173.35 4888.33 175.98 4884 181 4884ZM181 4873C193.13 4873 203 4882.87 203 4895C203 4898.14 202.35 4901.16 201.08 4904C200.86 4904.48 200.3 4904.7 199.82000000000002 4904.48C199.33 4904.2699999999995 199.12000000000003 4903.7 199.33 4903.219999999999C200.5 4900.629999999999 201.09 4897.86 201.09 4894.999999999999C201.09 4883.919999999999 192.08 4874.909999999999 181 4874.909999999999C169.92 4874.909999999999 160.91 4883.919999999999 160.91 4894.999999999999C160.91 4897.859999999999 161.5 4900.629999999999 162.66 4903.219999999999C162.88 4903.699999999999 162.67 4904.2699999999995 162.18 4904.48C162.06 4904.54 161.92000000000002 4904.57 161.79000000000002 4904.57C161.43 4904.57 161.08 4904.36 160.92000000000002 4904C159.65 4901.16 159.00000000000003 4898.14 159.00000000000003 4895C159.00000000000003 4882.87 168.87000000000003 4873 181.00000000000003 4873Z " fill="#ffffff" fill-opacity="1" transform="matrix(1,0,0,1,-159,-4873)"></path></svg>