<svg xmlns="http://www.w3.org/2000/svg" viewBox="0 0 367.44 512.26"><defs><style>.cls-1{fill:#e889c2;}.cls-1,.cls-10,.cls-11,.cls-14,.cls-15,.cls-16,.cls-17,.cls-21,.cls-3,.cls-4,.cls-5,.cls-6,.cls-7,.cls-8,.cls-9{stroke:#43456d;}.cls-1,.cls-10,.cls-11,.cls-14,.cls-17,.cls-21,.cls-3,.cls-4,.cls-5,.cls-6,.cls-7,.cls-8,.cls-9{stroke-linecap:round;stroke-linejoin:round;}.cls-1,.cls-10,.cls-11,.cls-14,.cls-15,.cls-16,.cls-17,.cls-3,.cls-4,.cls-8,.cls-9{stroke-width:4px;}.cls-18,.cls-19,.cls-2{fill:#43456d;}.cls-2{opacity:0.3;}.cls-15,.cls-3{fill:#facbb2;}.cls-4{fill:#d54d1d;}.cls-10,.cls-12,.cls-5{fill:#706ac4;}.cls-5{stroke-width:3.88px;}.cls-6,.cls-8{fill:#83d2f4;}.cls-6{stroke-width:3.9px;}.cls-11,.cls-21,.cls-7{fill:none;}.cls-7{stroke-width:3px;}.cls-9{fill:#e28b69;}.cls-13,.cls-14{fill:#b57469;}.cls-15,.cls-16{stroke-miterlimit:10;}.cls-16{fill:#fff;}.cls-17{fill:#a57b74;}.cls-18{opacity:0.33;}.cls-20{opacity:0.5;}.cls-21{stroke-width:4.53px;}</style></defs><title>Asset 4</title><g id="Layer_2" data-name="Layer 2"><g id="Layer_52" data-name="Layer 52"><path class="cls-1" d="M347,207.26s-77-13.5-161-13.5c-85,0-165,13.5-165,13.5l-15,6,15,238s116-6,165-6c53,0,161,6,161,6l14-237Z"/><path class="cls-2" d="M54.87,216.55l-.06-.14c-.45-.94-2.77-5.71-4.33-7.41-10.75-11.74-22.81-8.7-32.11-4.75C11.49,207.18-1,217.43,4.29,230.42c2.39,5.85,7.06,17.8,7.1,17.92a8.5,8.5,0,0,0,16-.3,8.48,8.48,0,0,0,11.86-4q.15-.34.27-.68a8.5,8.5,0,0,0,12-10.5l-2-5.15.47-.17A8.51,8.51,0,0,0,54.87,216.55Z"/><path class="cls-3" d="M46,207.35c1.44,1.57,4,6.93,4,6.93a6.52,6.52,0,0,1-3.72,8.4,6.44,6.44,0,0,1-2.51.43l2.88,7.47a6.5,6.5,0,1,1-12.13,4.68,6.5,6.5,0,1,1-12.13,4.68,6.5,6.5,0,1,1-12.13,4.68s-4.7-12-7.12-18c-5.14-12.59,8.41-21.62,13-23.57C25.36,199.18,36.26,196.71,46,207.35Z"/><line class="cls-4" x1="43.95" y1="223.58" x2="41.72" y2="218.23"/><line class="cls-4" x1="34.34" y1="234.79" x2="31.39" y2="227.58"/><line class="cls-4" x1="22.21" y1="239.47" x2="19.26" y2="232.26"/><path class="cls-2" d="M312.57,216.55l.06-.14c.45-.94,2.77-5.71,4.33-7.41,10.75-11.74,22.81-8.7,32.11-4.75,6.88,2.93,19.38,13.18,14.08,26.17-2.39,5.85-7.06,17.8-7.1,17.92a8.5,8.5,0,0,1-16-.3,8.48,8.48,0,0,1-11.86-4q-.15-.34-.27-.68a8.5,8.5,0,0,1-12-10.5l2-5.15-.47-.17A8.51,8.51,0,0,1,312.57,216.55Z"/><path class="cls-3" d="M321.43,207.35c-1.44,1.57-4,6.93-4,6.93a6.52,6.52,0,0,0,3.72,8.4,6.44,6.44,0,0,0,2.51.43l-2.88,7.47a6.5,6.5,0,0,0,12.13,4.68A6.5,6.5,0,1,0,345,239.94a6.5,6.5,0,0,0,12.13,4.68s4.7-12,7.12-18c5.14-12.59-8.41-21.62-13-23.57C342.08,199.18,331.17,196.71,321.43,207.35Z"/><line class="cls-4" x1="323.49" y1="223.58" x2="325.72" y2="218.23"/><line class="cls-4" x1="333.1" y1="234.79" x2="336.05" y2="227.58"/><line class="cls-4" x1="345.23" y1="239.47" x2="348.18" y2="232.26"/><rect class="cls-2" x="53.97" y="349.26" width="47" height="77" rx="9.94" ry="9.94"/><rect class="cls-5" x="55.97" y="347.26" width="43" height="73" rx="8" ry="8"/><rect class="cls-6" x="62.97" y="354.26" width="29" height="48" rx="2" ry="2"/><circle class="cls-7" cx="76.97" cy="411.26" r="3"/><path class="cls-2" d="M311,385.26a14,14,0,0,0,14-14v-6a14,14,0,0,0-14-14h-2v-1a2,2,0,0,0-4,0v1c-8,0-8,7.44-8,14v6c0,6.56,0,14,8,14v4c-8,0-8,7.44-8,14v6c0,6.27,0,13.32,7,13.94v1.06a2,2,0,0,0,4,0v-1h3a14,14,0,0,0,14-14v-6a14,14,0,0,0-14-14h-2v-4Z"/><path class="cls-8" d="M311,417.26h-6c-6,0-6-5.4-6-12v-6c0-6.6,0-12,6-12h6a12,12,0,0,1,12,12v6A12,12,0,0,1,311,417.26Z"/><path class="cls-8" d="M311,379.26h-6c-6,0-6-5.4-6-12v-6c0-6.6,0-12,6-12h6a12,12,0,0,1,12,12v6A12,12,0,0,1,311,379.26Z"/><line class="cls-9" x1="306.97" y1="379.26" x2="306.97" y2="387.26"/><line class="cls-9" x1="305.97" y1="420.26" x2="305.97" y2="417.26"/><line class="cls-9" x1="306.97" y1="349.26" x2="306.97" y2="346.26"/><path class="cls-2" d="M102,276.26H92.73c-1.17-2-3.76-7.06-4.76-8.37h0c-1-2.77-3.07-3.64-7.6-3.64H66.66c-4.52,0-6.42.86-7.79,3.63-.65,1.31-3.39,6.37-4.56,8.37H46a8.05,8.05,0,0,0-8,8v29a8.05,8.05,0,0,0,8,8H61.75a25.94,25.94,0,0,0,24.44,0H102a8.05,8.05,0,0,0,8-8v-29A8.05,8.05,0,0,0,102,276.26Z"/><rect class="cls-5" x="39.97" y="274.26" width="68" height="41" rx="6" ry="6"/><path class="cls-10" d="M86.37,264.81c-.86-1.73-1.71-2.55-6-2.55H66.66c-4.29,0-5.14.82-6,2.55s-5.14,9.45-5.14,9.45h36S87.23,266.54,86.37,264.81Z"/><circle class="cls-10" cx="73.97" cy="294.26" r="24"/><circle class="cls-6" cx="73.97" cy="294.26" r="16"/><path class="cls-2" d="M324.08,283.26H323v-14a13,13,0,0,0-26,0v8h-1.63c-3.56,0-6.52,2-7.1,6H273.86a22.08,22.08,0,0,0,0,44.16,22.79,22.79,0,0,0,18.63-10.16h12.95a22.88,22.88,0,0,0,18.63,10.21,22.11,22.11,0,0,0,0-44.21Zm-23.11-14a9,9,0,0,1,18,0v14h-9.9c-.58-4-3.54-6-7.1-6h-1Z"/><rect class="cls-10" x="290.13" y="275.26" width="17.05" height="10.42" rx="5.21" ry="5.21"/><path class="cls-10" d="M324.08,281.26H273.86a20.08,20.08,0,1,0,17.5,30h15.21a20,20,0,1,0,17.5-30Z"/><circle class="cls-8" cx="314.97" cy="301.26" r="3"/><circle class="cls-8" cx="332.97" cy="301.26" r="3"/><circle class="cls-8" cx="323.97" cy="293.26" r="3"/><circle class="cls-8" cx="323.97" cy="309.26" r="3"/><path class="cls-11" d="M299,275.26v-10a11,11,0,0,1,22,0v14"/><path class="cls-8" d="M281,297.26h-4v-4a2,2,0,0,0-2-2h-4a2,2,0,0,0-2,2v4h-4a2,2,0,0,0-2,2v4a2,2,0,0,0,2,2h4v4a2,2,0,0,0,2,2h4a2,2,0,0,0,2-2v-4h4a2,2,0,0,0,2-2v-4A2,2,0,0,0,281,297.26Z"/><path class="cls-2" d="M276,372.29v-6a3,3,0,0,0-3-3H263a3,3,0,0,0-3,3v6a5,5,0,0,0-2,4v24a5,5,0,0,0,5,5h10a5,5,0,0,0,5-5v-24A5,5,0,0,0,276,372.29Z"/><rect class="cls-10" x="259.97" y="369.26" width="16" height="30" rx="3" ry="3"/><rect class="cls-8" x="261.97" y="361.26" width="12" height="9" rx="1" ry="1"/><path class="cls-3" d="M46,206.35c1.44,1.57,4,6.93,4,6.93a6.52,6.52,0,0,1-3.72,8.4,6.44,6.44,0,0,1-2.51.43l2.88,7.47a6.5,6.5,0,1,1-12.13,4.68,6.5,6.5,0,1,1-12.13,4.68,6.5,6.5,0,1,1-12.13,4.68s-4.7-12-7.12-18c-5.14-12.59,8.41-21.62,13-23.57C25.36,198.18,36.26,195.71,46,206.35Z"/><line class="cls-4" x1="43.95" y1="222.58" x2="41.72" y2="217.23"/><line class="cls-4" x1="34.34" y1="233.79" x2="31.39" y2="226.58"/><line class="cls-4" x1="22.21" y1="238.47" x2="19.26" y2="231.26"/><polyline class="cls-10" points="164.97 317.26 164.97 473.26 134.97 473.26 134.97 275.26 236.97 275.26 236.97 473.26 205.97 473.26 205.97 317.26"/><polygon class="cls-12" points="153.97 309.26 167.97 318.26 185.97 319.26 203.97 317.26 218.97 309.26 153.97 309.26"/><path class="cls-10" d="M186,320.26c-16,0-24-4-24-4"/><path class="cls-10" d="M186,320.26c16,0,24-4,24-4"/><rect class="cls-2" x="136.97" y="292.26" width="98" height="5"/><path class="cls-13" d="M111,511.26v-7l5-9,9-6,23-1,22,12v11Z"/><path class="cls-14" d="M111,508.26h0c0-11.55,9.45-20,21-20h29c6,0,9,2,9,8v13"/><line class="cls-14" x1="141.97" y1="488.26" x2="141.97" y2="497.26"/><line class="cls-14" x1="132.97" y1="488.26" x2="132.97" y2="497.26"/><rect class="cls-3" x="138.97" y="473.26" width="22" height="15"/><rect class="cls-2" x="138.97" y="473.26" width="22" height="6"/><path class="cls-13" d="M260,511.26v-7l-5-9-9-6-23-1-22,12v11Z"/><path class="cls-14" d="M260,508.26h0c0-11.55-9.45-20-21-20H210c-6,0-9,2-9,8v13"/><line class="cls-14" x1="228.97" y1="488.26" x2="228.97" y2="497.26"/><line class="cls-14" x1="237.97" y1="488.26" x2="237.97" y2="497.26"/><rect class="cls-3" x="209.97" y="473.26" width="22" height="15" transform="translate(441.94 961.53) rotate(-180)"/><rect class="cls-2" x="209.97" y="473.26" width="22" height="6" transform="translate(441.94 952.53) rotate(-180)"/><line id="line" class="cls-4" x1="66.97" y1="510.26" x2="303.97" y2="510.26"/><rect class="cls-15" x="162.97" y="191.26" width="47" height="39"/><path class="cls-2" d="M162,197.9a60.92,60.92,0,0,0,25,5.36h0a60.93,60.93,0,0,0,23-4.5v-4.5H162Z"/><path class="cls-16" d="M268,206.26H210c0,3-2.68,19-24,19s-23-16-23-19H101v29h34v55H237v-55h34v-29Z"/><line class="cls-4" x1="236.97" y1="274.26" x2="236.97" y2="230.26"/><line class="cls-4" x1="134.97" y1="230.26" x2="134.97" y2="275.26"/><line class="cls-4" x1="270.97" y1="230.26" x2="270.97" y2="241.26"/><rect class="cls-2" x="102.97" y="208.26" width="4" height="25"/><rect class="cls-2" x="264.97" y="208.26" width="4" height="25"/><line class="cls-4" x1="100.97" y1="230.26" x2="100.97" y2="241.26"/><g id="face"><path class="cls-17" d="M261.44,135.76h0C261.54,135.76,261.52,135.76,261.44,135.76Z"/><path class="cls-17" d="M268,53.26H103.8A45.93,45.93,0,0,0,104,65c1,7,6,65.24,6,68.24h15v-17c0-6,3.75-34,10.75-34s19.63,7,48.63,7c37.63,0,46.63-6,54.63-6s8,31,8,35,1,17,1,17,12.41.43,13.47.49c-3.9-.35,7.28-63.77,7.28-73.74A47,47,0,0,0,268,53.26Z"/><circle class="cls-15" cx="124.97" cy="135.26" r="18"/><circle class="cls-15" cx="247.97" cy="135.26" r="18"/><path class="cls-15" d="M235,75.26a328,328,0,0,0-49-4,328,328,0,0,0-49,4c-13,2-12,9.48-12,30v30.52a61,61,0,1,0,122,0V105.26C247,84.74,248,77.26,235,75.26Z"/><path class="cls-18" d="M224,155.26c-10,0-11-3-16-8a31.39,31.39,0,0,0-44,0c-5,5-6,8-16,8s-22-18-22-22l1,18,8,19,9,9,18,13,13,4,11,1,11-1,13-4,18-13,9-9,8-19,1-18C246,137.26,234,155.26,224,155.26Z"/><path class="cls-16" d="M166,164.26c0-10.26,9-19,20-19s21,8.74,21,19c0,1.52-1,2-3,2H169C167,166.26,166,165.81,166,164.26Z"/><polygon class="cls-19" points="203.97 166.26 168.97 166.26 165.97 163.26 168.97 155.26 203.97 155.26 206.97 163.26 203.97 166.26"/><circle class="cls-19" cx="155.47" cy="124.76" r="4.5"/><circle class="cls-19" cx="217.47" cy="124.76" r="4.5"/><rect class="cls-19" x="135.47" y="97.91" width="32.77" height="8.49" rx="4" ry="4" transform="translate(-16.6 30.62) rotate(-10.92)"/><rect class="cls-19" x="204.72" y="97.91" width="32.77" height="8.3" rx="4" ry="4" transform="translate(418.86 244.17) rotate(-169.08)"/><path class="cls-2" d="M248,117.26v18.52a61,61,0,0,1-2.28,16.48h6A61,61,0,0,0,254,135.78V117.26Z"/><path class="cls-2" d="M125,117.26v18.52a60.87,60.87,0,0,0,2,16.48h-6a60.87,60.87,0,0,1-2-16.48V117.26Z"/><g class="cls-20"><path class="cls-7" d="M187,177.26c-5.71,0-8,3-8,3"/><path class="cls-7" d="M187,177.26c5.71,0,8,3,8,3"/></g><path class="cls-2" d="M137,81.26a328,328,0,0,1,49-4,328,328,0,0,1,49,4c10.65,1.64,11.9,7,12,20.12.06-17.6.14-24.25-12-26.12a328,328,0,0,0-49-4,328,328,0,0,0-49,4c-12.14,1.87-12.07,8.52-12,26.12C125.07,88.23,126.32,82.9,137,81.26Z"/></g><polyline class="cls-12" points="104.97 89.26 105.97 88.26 104.97 77.26 120.97 71.26 136.97 67.26 167.97 64.26 187.97 63.26 212.97 64.26 236.97 67.26 250.97 70.26 266.97 77.26 266.97 88.26 272.97 88.26 276.97 83.26 276.97 67.26 274.97 53.26 269.97 47.26 263.97 41.26 261.97 36.26 250.97 23.26 229.97 10.26 214.97 6.26 195.97 2.26 183.97 2.26 159.97 5.26 143.97 12.26 123.97 23.26 112.97 34.26 106.97 46.26 99.97 51.26 96.97 60.26 96.97 76.26 98.97 85.26 100.97 88.26 104.97 89.26"/><path class="cls-11" d="M187,63.26c-53,0-71,10-79,13-3,1.11-5,3-5,6"/><path class="cls-11" d="M187,63.26c53,0,71,10,79,13,3,1.11,5,3,5,6"/><path class="cls-11" d="M106,89.26c-6,0-9-4-9-11v-15c0-5,2-13,10-17h0c8-3,27-13,80-13"/><path class="cls-11" d="M268,89.26c6,0,9-4,9-11v-15c0-5-2-13-10-17h0c-8-3-27-13-80-13"/><path class="cls-21" d="M267.66,46.45C256.51,20.78,224.83,2.26,187.47,2.26c-36.63,0-67.78,17.8-79.5,42.67"/><line class="cls-17" x1="106.97" y1="46.26" x2="106.97" y2="76.26"/><line class="cls-17" x1="120.97" y1="42.26" x2="120.97" y2="71.26"/><line class="cls-17" x1="135.97" y1="39.26" x2="135.97" y2="67.26"/><line class="cls-17" x1="149.97" y1="36.26" x2="149.97" y2="64.26"/><line class="cls-17" x1="164.97" y1="35.26" x2="164.97" y2="62.26"/><line class="cls-17" x1="178.97" y1="35.26" x2="178.97" y2="62.26"/><line class="cls-17" x1="265.97" y1="46.26" x2="265.97" y2="76.26"/><line class="cls-17" x1="251.97" y1="42.26" x2="251.97" y2="71.26"/><line class="cls-17" x1="236.97" y1="39.26" x2="236.97" y2="67.26"/><line class="cls-17" x1="222.97" y1="36.26" x2="222.97" y2="64.26"/><line class="cls-17" x1="207.97" y1="35.26" x2="207.97" y2="62.26"/><line class="cls-17" x1="193.97" y1="35.26" x2="193.97" y2="62.26"/></g></g></svg>