<svg xmlns="http://www.w3.org/2000/svg" viewBox="0 0 284 520.91"><defs><style>.cls-1,.cls-20{fill:#fff;}.cls-1,.cls-10,.cls-11,.cls-12,.cls-14,.cls-15,.cls-16,.cls-17,.cls-18,.cls-19,.cls-2,.cls-20,.cls-3,.cls-5,.cls-7,.cls-9{stroke:#43456d;stroke-width:4px;}.cls-1,.cls-10,.cls-11,.cls-12,.cls-15,.cls-16,.cls-18,.cls-19,.cls-22,.cls-3,.cls-5,.cls-7{stroke-linecap:round;stroke-linejoin:round;}.cls-18,.cls-2{fill:#facbb2;}.cls-14,.cls-17,.cls-2,.cls-20,.cls-9{stroke-miterlimit:10;}.cls-3{fill:#d54d1d;}.cls-21,.cls-4{fill:#43456d;}.cls-4{opacity:0.3;}.cls-5,.cls-6{fill:#706ac4;}.cls-7{fill:#e2d3bf;}.cls-19,.cls-8,.cls-9{fill:#a57b74;}.cls-10{fill:none;}.cls-11{fill:#b57469;}.cls-12,.cls-13,.cls-14{fill:#e889c2;}.cls-15{fill:#cc6eaa;}.cls-16{fill:#af6858;}.cls-17{fill:#ac97ef;}.cls-22{fill:#f7ae8c;stroke:#f7ae8c;stroke-width:3px;}</style></defs><title>Asset 5</title><g id="Layer_2" data-name="Layer 2"><g id="Layer_51" data-name="Layer 51"><rect class="cls-1" x="97" y="219.91" width="48" height="64"/><path class="cls-2" d="M65,351.91H57c-7,0-12,6-12,14v27.5a6.5,6.5,0,0,0,13,0,6.5,6.5,0,0,0,13,0v-4.3a11,11,0,0,0,5-9.2v-17A11,11,0,0,0,65,351.91Z"/><line class="cls-3" x1="58" y1="395.91" x2="58" y2="377.91"/><rect class="cls-4" x="48" y="352.91" width="22" height="6"/><polyline class="cls-5" points="100 325.91 100 450.91 70 450.91 70 283.91 172 283.91 172 450.91 141 450.91 141 325.91"/><polygon class="cls-6" points="89 317.91 103 326.91 121 327.91 139 325.91 154 317.91 89 317.91"/><path class="cls-7" d="M121,328.91c-16,0-24-4-24-4"/><path class="cls-7" d="M121,328.91c16,0,24-4,24-4"/><path class="cls-8" d="M46,519.91v-7l5-9,9-6,23-1,22,12v11Z"/><path class="cls-9" d="M66,496.91v-44a2,2,0,0,1,2-2h35a2,2,0,0,1,2,2v65"/><path class="cls-10" d="M81,496.91H67c-11.55,0-21,8.45-21,20h0"/><line class="cls-11" x1="66" y1="465.91" x2="75" y2="465.91"/><line class="cls-11" x1="66" y1="474.91" x2="75" y2="474.91"/><line class="cls-11" x1="66" y1="483.91" x2="75" y2="483.91"/><path class="cls-8" d="M196,519.91v-7l-5-9-9-6-23-1-22,12v11Z"/><path class="cls-9" d="M176,496.91v-44a2,2,0,0,0-2-2H139a2,2,0,0,0-2,2v65"/><path class="cls-10" d="M161,496.91h14c11.55,0,21,8.45,21,20h0"/><line class="cls-11" x1="176" y1="465.91" x2="167" y2="465.91"/><line class="cls-11" x1="176" y1="474.91" x2="167" y2="474.91"/><line class="cls-11" x1="176" y1="483.91" x2="167" y2="483.91"/><rect class="cls-4" x="70" y="443.91" width="30" height="6"/><rect class="cls-4" x="142" y="443.91" width="30" height="6"/><path class="cls-4" d="M150.82,300.91a6.48,6.48,0,0,0-7.82-7.82V221.91H99v71.18a6.48,6.48,0,0,0-7.82,7.82H72v5H97v0l.5,0a6.5,6.5,0,0,0,6.5-6.5c0-.17,0-.33,0-.5h0v-72h34v74h.18a6.47,6.47,0,0,0,7.82,4.82v.18h24v-5Z"/><path class="cls-12" d="M70,296.91v55H46c-4,0-5-1-5-6v-94a38.11,38.11,0,0,1,38-38"/><polygon class="cls-13" points="80 213.91 97 213.91 97 283.91 74 284.91 75 218.91 80 213.91"/><path class="cls-14" d="M266,166.91H248c-4,0-5,1-5,7v5.39c0,23.61-16,35.61-36.61,35.61H145v81a3,3,0,0,0,3,3h22c1.65,0,2-1.35,2-3v-52h44a57,57,0,0,0,57-57v-13C273,167.91,272,166.91,266,166.91Z"/><rect class="cls-4" x="245" y="177.91" width="27" height="4"/><rect class="cls-4" x="43" y="339.91" width="27" height="4"/><path class="cls-12" d="M97,280.91v15a3,3,0,0,1-3,3H72c-1.65,0-2-1.35-2-3v-57"/><line class="cls-3" x1="172" y1="238.91" x2="172" y2="283.91"/><path class="cls-15" d="M97,208.91H87a7,7,0,0,0-7,7v24c0,3.85,2.28,6.28,5,9l12,12Z"/><line class="cls-16" x1="97" y1="283.91" x2="97" y2="260.91"/><path class="cls-15" d="M145,208.91h10a7,7,0,0,1,7,7v24c0,3.85-2.28,6.28-5,9l-12,12Z"/><line class="cls-16" x1="145" y1="283.91" x2="145" y2="260.91"/><path class="cls-4" d="M162,221v18.88c0,3.85-2.28,6.28-5,9l-10,10v12l12-12c2.72-2.72,5-5.15,5-9v-24A7,7,0,0,0,162,221Z"/><path class="cls-4" d="M84,248.91c-2.72-2.72-5-5.15-5-9V221.34a6.93,6.93,0,0,0-1,3.58v24c0,3.85,2.28,6.28,5,9l12,12v-10Z"/><rect class="cls-17" x="97" y="202.91" width="48" height="17"/><rect class="cls-17" x="122" y="219.91" width="16" height="46"/><line class="cls-3" x1="122" y1="273.91" x2="122" y2="265.91"/><line class="cls-3" x1="138" y1="273.91" x2="138" y2="265.91"/><line class="cls-3" x1="130" y1="273.91" x2="130" y2="265.91"/><path class="cls-4" d="M97,206.55a60.92,60.92,0,0,0,25,5.36h0a60.93,60.93,0,0,0,23-4.5v-4.5H97Z"/><rect class="cls-4" x="122" y="219.91" width="17" height="6"/><path class="cls-18" d="M282,118.41a6.5,6.5,0,0,0-13,0,6.5,6.5,0,0,0-13,0,6.5,6.5,0,0,0-13,0v8a6.44,6.44,0,0,0-2.5-.5,6.52,6.52,0,0,0-6.5,6.5v20a6.52,6.52,0,0,0,4,6,11,11,0,0,0,7,2.49h3v6h22v-6h1a11,11,0,0,0,11-11v-10c0-.28,0-.53,0-.79a6.48,6.48,0,0,0,0-.71Z"/><line class="cls-3" x1="243" y1="125.91" x2="243" y2="138.91"/><line class="cls-3" x1="256" y1="118.91" x2="256" y2="133.91"/><line class="cls-3" x1="269" y1="118.91" x2="269" y2="133.91"/><rect class="cls-4" x="248" y="160.91" width="23" height="6"/><path class="cls-19" d="M196.5,144.41c-4,0,7.25-63.75,7.25-73.75s-1.54-20.21-14.87-23.37a31.19,31.19,0,0,0,1.06-29.69s-4,2.66-16,3.66-22-4.17-29-7.17S122,2,111,2,91,4,81,11s-19.66,20-27,33c-17,3-16,22.74-15,29.74s6,65.24,6,68.24H60v-40c0-6,3.75-11,10.75-11s19.63,7,48.63,7c37.63,0,46.63-6,54.63-6s9,8,9,12v40S197.5,144.41,196.5,144.41Z"/><circle class="cls-2" cx="60" cy="143.91" r="18"/><circle class="cls-2" cx="183" cy="143.91" r="18"/><path class="cls-2" d="M121.5,205.91h0A61.67,61.67,0,0,1,60,144.43V105.3c0-33.82,27.67-13.1,61.5-13.1h0c33.82,0,61.5-20.71,61.5,13.1v39.14A61.67,61.67,0,0,1,121.5,205.91Z"/><path class="cls-20" d="M142,157.91c0,10.26-9,19-20,19s-21-8.74-21-19c0-1.52,1-2,3-2h35C141,155.91,142,156.37,142,157.91Z"/><polygon class="cls-21" points="103 166.91 140 166.91 133 174.66 121 178.29 110 174.85 103 166.91"/><circle class="cls-21" cx="90.5" cy="133.41" r="4.5"/><circle class="cls-21" cx="152.5" cy="133.41" r="4.5"/><rect class="cls-21" x="70.5" y="106.56" width="32.77" height="8.49" rx="4" ry="4" transform="translate(-19.42 18.47) rotate(-10.92)"/><rect class="cls-21" x="139.75" y="106.57" width="32.77" height="8.3" rx="4" ry="4" transform="translate(288.46 249) rotate(-169.08)"/><path class="cls-22" d="M122,185.91c-5.71,0-8,3-8,3"/><path class="cls-22" d="M122,185.91c5.71,0,8,3,8,3"/><path class="cls-4" d="M121.5,92.19h0C87.67,92.19,60,71.48,60,105.3v6c0-33.82,27.67-13.1,61.5-13.1h0c33.82,0,61.5-20.71,61.5,13.1v-6C183,71.48,155.33,92.19,121.5,92.19Z"/><path class="cls-4" d="M183,125.91v18.52a61,61,0,0,1-2.28,16.48h6A61,61,0,0,0,189,144.43V125.91Z"/><path class="cls-4" d="M60,125.91v18.52a60.87,60.87,0,0,0,2,16.48H56a60.87,60.87,0,0,1-2-16.48V125.91Z"/><line class="cls-3" x1="2" y1="518.91" x2="239" y2="518.91"/></g></g></svg>