<svg id="SvgjsSvg1039" xmlns="http://www.w3.org/2000/svg" version="1.1" xmlns:xlink="http://www.w3.org/1999/xlink" xmlns:svgjs="http://svgjs.com/svgjs" width="33" height="21" viewBox="0 0 33 21"><title>Fill 20</title><desc>Created with Avocode.</desc><defs id="SvgjsDefs1040"></defs><path id="SvgjsPath1041" d="M1244.03 3165.77C1244.12 3160.47 1249.06 3155.83 1254.43 3156.0099999999998C1257 3155.89 1259.42 3156.9999999999995 1261.39 3158.5499999999997C1260.5500000000002 3159.49 1259.68 3160.3999999999996 1258.75 3161.2499999999995C1256.38 3159.6299999999997 1253.01 3159.1699999999996 1250.64 3161.0399999999995C1247.25 3163.3499999999995 1247.0900000000001 3168.8099999999995 1250.3500000000001 3171.2999999999997C1253.5300000000002 3174.14 1259.5200000000002 3172.7299999999996 1260.39 3168.3799999999997C1258.41 3168.3499999999995 1256.42 3168.3799999999997 1254.43 3168.3199999999997C1254.43 3167.1499999999996 1254.42 3165.9799999999996 1254.43 3164.8099999999995C1257.75 3164.7999999999993 1261.0700000000002 3164.7999999999993 1264.39 3164.8199999999997C1264.5900000000001 3167.5699999999997 1264.22 3170.4999999999995 1262.51 3172.7699999999995C1259.92 3176.3699999999994 1254.71 3177.4199999999996 1250.65 3175.8799999999997C1246.5700000000002 3174.3499999999995 1243.68 3170.0999999999995 1244.0300000000002 3165.7699999999995 " fill="#ffffff" fill-opacity="1" transform="matrix(1,0,0,1,-1244,-3156)"></path><path id="SvgjsPath1042" d="M1271 3162C1271.99 3162 1272.97 3162 1273.96 3162C1273.97 3162.98 1273.97 3163.96 1273.98 3164.94C1274.97 3164.9500000000003 1275.97 3164.9500000000003 1276.96 3164.96C1276.96 3165.93 1276.96 3166.91 1276.96 3167.88C1275.97 3167.8900000000003 1274.98 3167.8900000000003 1273.98 3167.9C1273.97 3168.88 1273.97 3169.86 1273.96 3170.84C1272.97 3170.84 1271.99 3170.84 1271 3170.84C1270.99 3169.86 1270.99 3168.88 1270.98 3167.9100000000003C1269.99 3167.9 1268.99 3167.8900000000003 1268 3167.88C1268 3166.9100000000003 1268 3165.9300000000003 1268 3164.96C1268.99 3164.95 1269.98 3164.94 1270.98 3164.94C1270.98 3163.9500000000003 1270.99 3162.98 1271 3162 " fill="#ffffff" fill-opacity="1" transform="matrix(1,0,0,1,-1244,-3156)"></path></svg>