<?xml version="1.0" encoding="UTF-8"?>
<svg width="22px" height="12px" viewBox="0 0 22 12" version="1.1" xmlns="http://www.w3.org/2000/svg" xmlns:xlink="http://www.w3.org/1999/xlink">
    <!-- Generator: Sketch 42 (36781) - http://www.bohemiancoding.com/sketch -->
    <title>Shape</title>
    <desc>Created with Sketch.</desc>
    <defs></defs>
    <g id="Page-1" stroke="none" stroke-width="1" fill="none" fill-rule="evenodd">
        <g id="02-Detail-1" transform="translate(-624.000000, -3178.000000)" fill="#FFFFFF">
            <g id="last-block" transform="translate(0.000000, 2888.000000)">
                <g id="call-to-action" transform="translate(132.000000, 51.000000)">
                    <g id="share" transform="translate(478.000000, 95.000000)">
                        <g transform="translate(0.000000, 125.000000)" id="vk">
                            <g>
                                <path d="M35.8087813,29.7004265 C35.4270826,29.043206 34.6976666,28.2365142 33.6209745,27.2801211 L33.5868326,27.2474806 C33.075106,26.7911275 32.7656629,26.4916865 32.6360763,26.3383798 C32.3989689,26.0463415 32.3458505,25.750736 32.4754371,25.4512183 C32.5669902,25.2249212 32.9108962,24.7470123 33.5063526,24.0168397 C33.819567,23.6298716 34.067627,23.3197294 34.2508135,23.0860681 C35.5719949,21.4068666 36.1447837,20.3338346 35.9690595,19.8665502 L35.9008159,19.7573522 C35.8549591,19.691611 35.736606,19.6314696 35.5459171,19.5766214 C35.3547869,19.5218881 35.1104981,19.5128363 34.8126095,19.5493123 L31.5138083,19.5710982 C31.4603689,19.5529944 31.3840612,19.554682 31.2846446,19.5766214 C31.1853484,19.5985607 31.1356802,19.6095687 31.1356802,19.6095687 L31.0782689,19.6369928 L31.032693,19.6699402 C30.994499,19.6917261 30.9524937,19.7300431 30.9066369,19.7848147 C30.8610208,19.8393945 30.822867,19.9034481 30.7923761,19.9764385 C30.4332246,20.8598028 30.0248864,21.681108 29.5665992,22.4403157 C29.2840363,22.8930251 29.0245421,23.285363 28.7875551,23.6175595 C28.5508891,23.9496409 28.3523368,24.1943103 28.1920987,24.3511458 C28.03162,24.5081346 27.8867879,24.6339021 27.7567199,24.7289086 C27.6268525,24.8239534 27.5277167,24.8641115 27.4590719,24.8494214 C27.3902667,24.8347312 27.3254734,24.8201562 27.2641304,24.8055811 C27.1572916,24.7398399 27.0713553,24.6504333 27.006562,24.5372847 C26.9414878,24.4241362 26.8976771,24.2817224 26.8747688,24.1101585 C26.8519808,23.9384795 26.8385006,23.790811 26.8346491,23.6666545 C26.8310785,23.5426513 26.8327234,23.3672518 26.8404665,23.1409547 C26.8484102,22.9145425 26.8519808,22.7613508 26.8519808,22.6810345 C26.8519808,22.4035712 26.8576377,22.1024426 26.8689916,21.777572 C26.880546,21.4527013 26.8898939,21.1952979 26.8977173,21.0056686 C26.9055005,20.8158475 26.9091113,20.6150184 26.9091113,20.4032963 C26.9091113,20.1915742 26.895631,20.0255335 26.8689916,19.9050207 C26.8426731,19.7846613 26.8022725,19.6678306 26.7490337,19.554567 C26.6954739,19.4414184 26.6170801,19.3538913 26.5142132,19.2917555 C26.4111457,19.2296963 26.2830034,19.1804479 26.1305085,19.1438569 C25.725741,19.0562914 25.2103233,19.0089224 24.5840149,19.0015581 C23.1637378,18.9869831 22.2511353,19.0746636 21.8464079,19.2644847 C21.6860495,19.344686 21.5409366,19.4542675 21.4111895,19.5928841 C21.2736993,19.753555 21.2545221,19.8412356 21.3537782,19.8556572 C21.8120253,19.9212834 22.1364331,20.0782723 22.3273627,20.3264703 L22.396168,20.4579912 C22.4496876,20.5528826 22.5031271,20.7208794 22.5566066,20.9617516 C22.6100059,21.2026238 22.6444687,21.4690791 22.659634,21.7609641 C22.6977477,22.2939897 22.6977477,22.7502661 22.659634,23.1298316 C22.6213999,23.5095505 22.5852922,23.805156 22.5508294,24.016878 C22.5163666,24.2286001 22.4648529,24.400164 22.396168,24.5315314 C22.3273627,24.6629372 22.2815861,24.7432535 22.2586377,24.7724036 C22.2357293,24.8015538 22.2166324,24.819926 22.2014671,24.8271369 C22.102211,24.8634978 21.9989831,24.8820235 21.8921443,24.8820235 C21.7851451,24.8820235 21.6553981,24.8308573 21.5027025,24.7286017 C21.3500471,24.6263461 21.1916145,24.4858884 21.0274046,24.3069986 C20.8631947,24.1280705 20.6780022,23.8780313 20.4717469,23.5568428 C20.2656521,23.2356543 20.0518141,22.8560504 19.8303535,22.4180312 L19.6471269,22.1003714 C19.5325851,21.8960136 19.3761184,21.598452 19.177566,21.2079552 C18.9788933,20.817305 18.8032895,20.4394271 18.6506341,20.0743984 C18.589612,19.9210916 18.4979385,19.804376 18.3757741,19.7240597 L18.318443,19.6911124 C18.2803293,19.6619622 18.2191468,19.6310094 18.1352164,19.5980237 C18.0511657,19.5650764 17.9634641,19.5414494 17.8717504,19.5269127 L14.7332274,19.5486986 C14.4125106,19.5486986 14.1949014,19.6181603 14.0803196,19.756892 L14.0344628,19.8225181 C14.0115545,19.8590709 14,19.9174479 14,19.9978025 C14,20.0781188 14.0229083,20.1766923 14.0687651,20.293408 C14.526932,21.3228682 15.0251784,22.3156989 15.5635043,23.2720536 C16.1018303,24.2284083 16.5696259,24.9987775 16.9666102,25.5824707 C17.3636747,26.1665858 17.7684021,26.7178686 18.1807924,27.2360507 C18.5931827,27.7544246 18.866157,28.0866211 18.9997155,28.2325636 C19.1334344,28.3787745 19.2384677,28.4880876 19.3148155,28.561078 L19.6012299,28.8238512 C19.7844967,28.9990972 20.0536195,29.2089782 20.4087189,29.4534942 C20.7638985,29.6981636 21.1571115,29.9390358 21.5885587,30.1764943 C22.020086,30.4135694 22.5221037,30.6070342 23.0948924,30.7566588 C23.667601,30.9064369 24.2250239,30.9665398 24.7672415,30.9375431 L26.0845313,30.9375431 C26.3516883,30.9154887 26.5540921,30.8351724 26.6916626,30.6965559 L26.7372385,30.6416692 C26.76789,30.5980974 26.7965755,30.5304001 26.8230545,30.4393059 C26.8498545,30.3480583 26.8631742,30.2475286 26.8631742,30.1381773 C26.8553509,29.8243146 26.8803454,29.5414432 26.9374759,29.2896013 C26.9945662,29.0378362 27.0596403,28.8480151 27.1324174,28.7201764 C27.2051544,28.5924527 27.2872393,28.4846739 27.3785918,28.3973002 C27.470145,28.3097347 27.5353796,28.2566892 27.5736538,28.238432 C27.6116872,28.2200597 27.6420578,28.2075942 27.6649662,28.2001149 C27.8482329,28.1417379 28.0639163,28.1982738 28.3123374,28.3699911 C28.560558,28.5415551 28.7933725,28.7533922 29.0111422,29.0051573 C29.2287915,29.2571526 29.4902916,29.5398706 29.7956827,29.8537333 C30.1012743,30.1677109 30.3684714,30.4011038 30.5974746,30.5546407 L30.8264778,30.6860465 C30.979414,30.773727 31.1779664,30.8540433 31.4223755,30.9270337 C31.6663433,30.9999858 31.880101,31.018243 32.0636486,30.981767 L34.9958762,30.9380417 C35.2859014,30.9380417 35.5115747,30.8921303 35.6716522,30.8010361 C35.8320507,30.7097885 35.927335,30.6092589 35.9580667,30.4999075 C35.9887181,30.390441 35.990363,30.2662461 35.963884,30.1273994 C35.936723,29.9888979 35.9099632,29.8920504 35.8833237,29.8373171 C35.8566842,29.7824305 35.8318501,29.7369026 35.8087813,29.7004265 Z" id="Shape"></path>
                            </g>
                        </g>
                    </g>
                </g>
            </g>
        </g>
    </g>
</svg>