<?xml version="1.0" encoding="UTF-8"?>
<svg width="21px" height="17px" viewBox="0 0 21 17" version="1.1" xmlns="http://www.w3.org/2000/svg" xmlns:xlink="http://www.w3.org/1999/xlink">
    <!-- Generator: Sketch 42 (36781) - http://www.bohemiancoding.com/sketch -->
    <title>Shape</title>
    <desc>Created with Sketch.</desc>
    <defs>
        <path d="M9.98319159,2.62024024 L7.60316213,7.66931517 L7.0952381,8 C6,8 6,8.54286552 6,9 L6,14 C6.00285175,14.1748841 6.92033073,15.0000232 7.0952381,15 L13,15 C13.5295653,15.0041516 14.5847929,14.2571172 14.6509743,13.7316872 C14.6920131,13.3309744 14.4926291,12.9438144 14.1425847,12.744506 L14.3863331,12.744506 C14.9158984,12.7486576 15.3647879,12.3558793 15.4309693,11.8304493 C15.4701932,11.4319183 15.2718393,11.0474798 14.9243208,10.8484913 L15.1645871,10.8484913 C15.6941524,10.8526429 16.1430419,10.4598646 16.2092233,9.93443464 C16.2577501,9.53084937 16.06124,9.13714437 15.709539,8.93332496 L15.9828854,8.93332496 C16.2572981,8.93294611 16.5199481,8.82185432 16.7113477,8.62521092 C16.9027473,8.42856752 17.0067012,8.16301141 16.9996647,7.88868877 C16.9688675,7.32819522 15.7258496,6.99073445 15.1645871,7 L11,7 L11.6666667,2.76190476 C11.655365,2.48738707 11.3864116,2.23758708 11.1471451,2.10253442 C10.9078785,1.96748176 10.6157928,1.96573719 10.3749302,2.09792215 C10.1754905,2.20779569 10.0328271,2.39801353 9.98319159,2.62024024 Z M1,15 C0.387145996,15 0,14.5775757 0,14 L0,9 C0,8.42687988 0.472290039,8 1,8 C1.52770996,8 3,8 3,8 C3.54406738,8 4,8.43133545 4,9 L4,14 C4,14.5987549 3.55566406,15 3,15 L1,15 Z" id="path-1"></path>
        <mask id="mask-2" maskContentUnits="userSpaceOnUse" maskUnits="objectBoundingBox" x="-2" y="-2" width="21" height="17.0000172">
            <rect x="-2" y="0" width="21" height="17.0000172" fill="white"></rect>
            <use xlink:href="#path-1" fill="black"></use>
        </mask>
    </defs>
    <g id="Page-1" stroke="none" stroke-width="1" fill="none" fill-rule="evenodd">
        <g id="02-Detail-2/5" transform="translate(-1107.000000, -541.000000)" stroke-width="4" stroke="#BFC1CA" fill-rule="nonzero">
            <g id="comments">
                <g id="comment-2" transform="translate(310.000000, 455.000000)">
                    <g id="rating" transform="translate(799.000000, 86.000000)">
                        <use id="Shape" mask="url(#mask-2)" xlink:href="#path-1"></use>
                    </g>
                </g>
            </g>
        </g>
    </g>
</svg>