<svg id="SvgjsSvg1136" xmlns="http://www.w3.org/2000/svg" version="1.1" xmlns:xlink="http://www.w3.org/1999/xlink" xmlns:svgjs="http://svgjs.com/svgjs" width="56" height="67" viewBox="0 0 56 67"><title>icon 5</title><desc>Created with Avocode.</desc><defs id="SvgjsDefs1137"></defs><path id="SvgjsPath1138" d="M1055 344.34C1055.81 344.25 1056.63 344.2 1057.46 344.2C1069.3600000000001 344.2 1079 353.87 1079 365.8C1079 371.61 1076.72 376.88 1073 380.76C1073 380.77 1073 380.78 1073 380.8V389.2C1073 390.2 1072.2 391 1071.21 391H1026.79C1025.8 391 1025 390.19 1025 389.2V380.8C1025 379.8 1025.8 379 1026.79 379H1064.19C1068.93 376.6 1072.18 371.67 1072.18 365.98C1072.18 357.93 1065.67 351.40000000000003 1057.64 351.40000000000003C1056.74 351.40000000000003 1055.8600000000001 351.48 1055 351.64000000000004V358.00000000000006H1043V335.80000000000007C1043 334.81000000000006 1043.81 334.00000000000006 1044.8 334.00000000000006H1055Z " fill="#a7b1ff" fill-opacity="1" transform="matrix(1,0,0,1,-1024,-325)"></path><path id="SvgjsPath1139" d="M1055 344.34C1055.81 344.25 1056.63 344.2 1057.46 344.2C1069.3600000000001 344.2 1079 353.87 1079 365.8C1079 371.61 1076.72 376.88 1073 380.76C1073 380.77 1073 380.78 1073 380.8V389.2C1073 390.2 1072.2 391 1071.21 391H1026.79C1025.8 391 1025 390.19 1025 389.2V380.8C1025 379.8 1025.8 379 1026.79 379H1064.19C1068.93 376.6 1072.18 371.67 1072.18 365.98C1072.18 357.93 1065.67 351.40000000000003 1057.64 351.40000000000003C1056.74 351.40000000000003 1055.8600000000001 351.48 1055 351.64000000000004V358.00000000000006H1043V335.80000000000007C1043 334.81000000000006 1043.81 334.00000000000006 1044.8 334.00000000000006H1055Z " fill-opacity="0" fill="#ffffff" stroke-dasharray="0" stroke-linejoin="round" stroke-linecap="round" stroke-opacity="1" stroke="#43456c" stroke-miterlimit="50" stroke-width="2" transform="matrix(1,0,0,1,-1024,-325)"></path><path id="SvgjsPath1140" d="M1055 358V361.9C1055 364.04999999999995 1053.26 365.79999999999995 1051.1 365.79999999999995H1046.8999999999999C1044.7399999999998 365.79999999999995 1042.9999999999998 364.04999999999995 1042.9999999999998 361.9V358Z " fill="#ffffff" fill-opacity="1" transform="matrix(1,0,0,1,-1024,-325)"></path><path id="SvgjsPath1141" d="M1055 358V361.9C1055 364.04999999999995 1053.26 365.79999999999995 1051.1 365.79999999999995H1046.8999999999999C1044.7399999999998 365.79999999999995 1042.9999999999998 364.04999999999995 1042.9999999999998 361.9V358Z " fill-opacity="0" fill="#ffffff" stroke-dasharray="0" stroke-linejoin="round" stroke-linecap="round" stroke-opacity="1" stroke="#43456c" stroke-miterlimit="50" stroke-width="2" transform="matrix(1,0,0,1,-1024,-325)"></path><path id="SvgjsPath1142" d="M1049 327.2C1049 326.53726 1049.53726 326 1050.2 326H1053.8C1054.46274 326 1055 326.53726 1055 327.2V332.8C1055 333.46274 1054.46274 334 1053.8 334H1050.2C1049.53726 334 1049 333.46274 1049 332.8Z " fill="#ffffff" fill-opacity="1" transform="matrix(1,0,0,1,-1024,-325)"></path><path id="SvgjsPath1143" d="M1049 327.2C1049 326.53726 1049.53726 326 1050.2 326H1053.8C1054.46274 326 1055 326.53726 1055 327.2V332.8C1055 333.46274 1054.46274 334 1053.8 334H1050.2C1049.53726 334 1049 333.46274 1049 332.8Z " fill-opacity="0" fill="#ffffff" stroke-dasharray="0" stroke-linejoin="round" stroke-linecap="round" stroke-opacity="1" stroke="#43456c" stroke-miterlimit="50" stroke-width="2" transform="matrix(1,0,0,1,-1024,-325)"></path><path id="SvgjsPath1144" d="M1037 374.8C1037 373.80589000000003 1037.80589 373 1038.8 373H1059.2C1060.1941100000001 373 1061 373.80589 1061 374.8V379V379H1037V379Z " fill="#ffffff" fill-opacity="1" transform="matrix(1,0,0,1,-1024,-325)"></path><path id="SvgjsPath1145" d="M1037 374.8C1037 373.80589000000003 1037.80589 373 1038.8 373H1059.2C1060.1941100000001 373 1061 373.80589 1061 374.8V379V379H1037V379Z " fill-opacity="0" fill="#ffffff" stroke-dasharray="0" stroke-linejoin="round" stroke-linecap="round" stroke-opacity="1" stroke="#43456c" stroke-miterlimit="50" stroke-width="2" transform="matrix(1,0,0,1,-1024,-325)"></path></svg>