<svg id="SvgjsSvg1070" xmlns="http://www.w3.org/2000/svg" version="1.1" xmlns:xlink="http://www.w3.org/1999/xlink" xmlns:svgjs="http://svgjs.com/svgjs" width="44.600228545045866" height="63.99995499111367" viewBox="0 0 44.600228545045866 63.99995499111367"><title>Rectangle 7</title><desc>Created with Avocode.</desc><defs id="SvgjsDefs1071"></defs><path id="SvgjsPath1072" d="M711 375V375H739V375L738.11094 391.00308C738.04967 392.10595 737.10461 393.00871 736.00009 393.01945L714.2899 393.23056C713.18538 393.2413 712.22686 392.3568 712.1489799999999 391.25498000000005Z " fill="#f9cab1" fill-opacity="1" transform="matrix(1,0,0,1,-699.1998857274771,-331)"></path><path id="SvgjsPath1073" d="M711 375V375H739V375L738.11094 391.00308C738.04967 392.10595 737.10461 393.00871 736.00009 393.01945L714.2899 393.23056C713.18538 393.2413 712.22686 392.3568 712.1489799999999 391.25498000000005Z " fill-opacity="0" fill="#ffffff" stroke-dasharray="0" stroke-linejoin="round" stroke-linecap="round" stroke-opacity="1" stroke="#43456c" stroke-miterlimit="50" stroke-width="2" transform="matrix(1,0,0,1,-699.1998857274771,-331)"></path><path id="SvgjsPath1074" d="M739.05 371C739.0699999999999 374.31 738.51 378.4 738.51 378.4H711.64L711.1899999999999 371C711.1899999999999 371 702.04 362.7 701.05 353C700.4 349.44 706.05 344 706.05 344V335.99C706.05 333.14 709.05 332 711.1899999999999 332C713.3199999999999 332 716.14 336.27 716.14 336.27C716.14 336.27 717.35 333.10999999999996 721.5 333.74C725.56 334.37 725.42 338.59000000000003 725.42 338.59000000000003C725.42 338.59000000000003 727.02 335.45000000000005 730.6999999999999 335.99C734.6099999999999 336.55 735.17 340.88 735.17 340.88C735.17 340.88 742.05 339.59 742.05 346C742.65 349.54 742.91 363.52 739.05 371Z " fill="#f9cab1" fill-opacity="1" transform="matrix(1,0,0,1,-699.1998857274771,-331)"></path><path id="SvgjsPath1075" d="M739.05 371C739.0699999999999 374.31 738.51 378.4 738.51 378.4H711.64L711.1899999999999 371C711.1899999999999 371 702.04 362.7 701.05 353C700.4 349.44 706.05 344 706.05 344V335.99C706.05 333.14 709.05 332 711.1899999999999 332C713.3199999999999 332 716.14 336.27 716.14 336.27C716.14 336.27 717.35 333.10999999999996 721.5 333.74C725.56 334.37 725.42 338.59000000000003 725.42 338.59000000000003C725.42 338.59000000000003 727.02 335.45000000000005 730.6999999999999 335.99C734.6099999999999 336.55 735.17 340.88 735.17 340.88C735.17 340.88 742.05 339.59 742.05 346C742.65 349.54 742.91 363.52 739.05 371Z " fill-opacity="0" fill="#ffffff" stroke-dasharray="0" stroke-linejoin="round" stroke-linecap="round" stroke-opacity="1" stroke="#43456c" stroke-miterlimit="50" stroke-width="2" transform="matrix(1,0,0,1,-699.1998857274771,-331)"></path><path id="SvgjsPath1076" d="M711 383V375H739V383Z " fill="#a3acf9" fill-opacity="1" transform="matrix(1,0,0,1,-699.1998857274771,-331)"></path><path id="SvgjsPath1077" d="M711 383V375H739V383Z " fill-opacity="0" fill="#ffffff" stroke-dasharray="0" stroke-linejoin="round" stroke-linecap="round" stroke-opacity="1" stroke="#43456c" stroke-miterlimit="50" stroke-width="2" transform="matrix(1,0,0,1,-699.1998857274771,-331)"></path><path id="SvgjsPath1078" d="M716 378C716 373.02944 720.02944 369 725 369C729.97056 369 734 373.02944 734 378C734 382.97056 729.97056 387 725 387C720.02944 387 716 382.97056 716 378Z " fill="#a7b1ff" fill-opacity="1" transform="matrix(1,0,0,1,-699.1998857274771,-331)"></path><path id="SvgjsPath1079" d="M716 378C716 373.02944 720.02944 369 725 369C729.97056 369 734 373.02944 734 378C734 382.97056 729.97056 387 725 387C720.02944 387 716 382.97056 716 378Z " fill-opacity="0" fill="#ffffff" stroke-dasharray="0" stroke-linejoin="round" stroke-linecap="round" stroke-opacity="1" stroke="#43456c" stroke-miterlimit="50" stroke-width="2" transform="matrix(1,0,0,1,-699.1998857274771,-331)"></path><path id="SvgjsPath1080" d="M729 378H725 " fill="#e2f3fb" fill-opacity="1" transform="matrix(1,0,0,1,-699.1998857274771,-331)"></path><path id="SvgjsPath1081" d="M729 378H725 " fill-opacity="0" fill="#ffffff" stroke-dasharray="0" stroke-linejoin="round" stroke-linecap="round" stroke-opacity="1" stroke="#43456c" stroke-miterlimit="50" stroke-width="2" transform="matrix(1,0,0,1,-699.1998857274771,-331)"></path><path id="SvgjsPath1082" d="M725 373.81V377.81 " fill="#e2f3fb" fill-opacity="1" transform="matrix(1,0,0,1,-699.1998857274771,-331)"></path><path id="SvgjsPath1083" d="M725 373.81V377.81 " fill-opacity="0" fill="#ffffff" stroke-dasharray="0" stroke-linejoin="round" stroke-linecap="round" stroke-opacity="1" stroke="#43456c" stroke-miterlimit="50" stroke-width="2" transform="matrix(1,0,0,1,-699.1998857274771,-331)"></path></svg>