<svg id="SvgjsSvg1100" xmlns="http://www.w3.org/2000/svg" version="1.1" xmlns:xlink="http://www.w3.org/1999/xlink" xmlns:svgjs="http://svgjs.com/svgjs" width="72" height="68.78625" viewBox="0 0 72 68.78625"><title>icon 2</title><desc>Created with Avocode.</desc><defs id="SvgjsDefs1101"></defs><path id="SvgjsPath1102" d="M553.1 385H562.02C562.74 385 563.36 384.56 563.59 383.96H586V349.17999999999995C586 347.41999999999996 584.47 345.99999999999994 582.58 345.99999999999994H531.4200000000001C529.5300000000001 345.99999999999994 528.0000000000001 347.41999999999996 528.0000000000001 349.17999999999995V383.9599999999999H551.5300000000001C551.7600000000001 384.55999999999995 552.3700000000001 384.99999999999994 553.1000000000001 384.99999999999994Z " fill="#6f6ac4" fill-opacity="1" transform="matrix(1,0,0,1,-521,-322.21375)"></path><path id="SvgjsPath1103" d="M553.1 385H562.02C562.74 385 563.36 384.56 563.59 383.96H586V349.17999999999995C586 347.41999999999996 584.47 345.99999999999994 582.58 345.99999999999994H531.4200000000001C529.5300000000001 345.99999999999994 528.0000000000001 347.41999999999996 528.0000000000001 349.17999999999995V383.9599999999999H551.5300000000001C551.7600000000001 384.55999999999995 552.3700000000001 384.99999999999994 553.1000000000001 384.99999999999994Z " fill-opacity="0" fill="#ffffff" stroke-dasharray="0" stroke-linejoin="round" stroke-linecap="round" stroke-opacity="1" stroke="#43456c" stroke-miterlimit="50" stroke-width="2" transform="matrix(1,0,0,1,-521,-322.21375)"></path><path id="SvgjsPath1104" d="M579 386C579 386 576.26 379.57 572.89 379.57C572.3 379.57 571.71 379.67 571.14 379.84999999999997C570.33 378.15 568.65 376.99999999999994 566.78 376.99999999999994C565.0799999999999 376.99999999999994 563.5799999999999 377.8999999999999 562.7099999999999 379.29999999999995C561.16 377.8299999999999 559.1399999999999 376.99999999999994 556.9999999999999 376.99999999999994C554.8599999999999 376.99999999999994 552.8399999999999 377.8299999999999 551.2899999999998 379.29999999999995C550.4199999999998 377.9 548.9199999999998 376.99999999999994 547.2199999999998 376.99999999999994C545.3499999999998 376.99999999999994 543.6699999999998 378.1499999999999 542.8599999999998 379.84999999999997V379.84999999999997C542.2899999999997 379.66999999999996 541.6999999999998 379.57 541.1099999999998 379.57C537.7399999999998 379.57 534.9999999999998 386 534.9999999999998 386 " fill="#ffffff" fill-opacity="1" transform="matrix(1,0,0,1,-521,-322.21375)"></path><path id="SvgjsPath1105" d="M579 386C579 386 576.26 379.57 572.89 379.57C572.3 379.57 571.71 379.67 571.14 379.84999999999997C570.33 378.15 568.65 376.99999999999994 566.78 376.99999999999994C565.0799999999999 376.99999999999994 563.5799999999999 377.8999999999999 562.7099999999999 379.29999999999995C561.16 377.8299999999999 559.1399999999999 376.99999999999994 556.9999999999999 376.99999999999994C554.8599999999999 376.99999999999994 552.8399999999999 377.8299999999999 551.2899999999998 379.29999999999995C550.4199999999998 377.9 548.9199999999998 376.99999999999994 547.2199999999998 376.99999999999994C545.3499999999998 376.99999999999994 543.6699999999998 378.1499999999999 542.8599999999998 379.84999999999997V379.84999999999997C542.2899999999997 379.66999999999996 541.6999999999998 379.57 541.1099999999998 379.57C537.7399999999998 379.57 534.9999999999998 386 534.9999999999998 386 " fill-opacity="0" fill="#ffffff" stroke-dasharray="0" stroke-linejoin="round" stroke-linecap="round" stroke-opacity="1" stroke="#43456c" stroke-miterlimit="50" stroke-width="2" transform="matrix(1,0,0,1,-521,-322.21375)"></path><path id="SvgjsPath1106" d="M561.67 386H553.11C552.41 386 551.78 384.87 551.5600000000001 384H522.62C522.28 384 522 384.39 522 384.87V389.13C522 389.61 522.28 390 522.62 390H591.38C591.72 390 592 389.61 592 389.13V384.87C592 384.39 591.72 384 591.38 384H563.34C563.11 384.87 562.36 386 561.6700000000001 386Z " fill="#eceff1" fill-opacity="1" transform="matrix(1,0,0,1,-521,-322.21375)"></path><path id="SvgjsPath1107" d="M561.67 386H553.11C552.41 386 551.78 384.87 551.5600000000001 384H522.62C522.28 384 522 384.39 522 384.87V389.13C522 389.61 522.28 390 522.62 390H591.38C591.72 390 592 389.61 592 389.13V384.87C592 384.39 591.72 384 591.38 384H563.34C563.11 384.87 562.36 386 561.6700000000001 386Z " fill-opacity="0" fill="#ffffff" stroke-dasharray="0" stroke-linejoin="round" stroke-linecap="round" stroke-opacity="1" stroke="#43456c" stroke-miterlimit="50" stroke-width="2" transform="matrix(1,0,0,1,-521,-322.21375)"></path><path id="SvgjsPath1108" d="M561 368.43V370.43H566V368.44H570C570.69 368.44 572 367.13 572 366.43V364.43C572 359.79 570.25 357.6 568.84 355.85C567.77 354.52000000000004 567 353.26000000000005 567 351.43V339.43C567 333.90000000000003 564.04 330.64 564 330.61L558 323.43C557.52 322.86 556.47 322.86 556 323.43L550 330.61C549.88 330.73 547 333.90000000000003 547 339.43V351.43C547 353.26 546.23 354.52 545.16 355.85C543.75 357.6 542 359.79 542 364.43V366.43C542 367.13 543.31 368.44 544 368.44L548 368.43V370.43L553 370.21V368.44Z " fill="#a7b1ff" fill-opacity="1" transform="matrix(1,0,0,1,-521,-322.21375)"></path><path id="SvgjsPath1109" d="M561 368.43V370.43H566V368.44H570C570.69 368.44 572 367.13 572 366.43V364.43C572 359.79 570.25 357.6 568.84 355.85C567.77 354.52000000000004 567 353.26000000000005 567 351.43V339.43C567 333.90000000000003 564.04 330.64 564 330.61L558 323.43C557.52 322.86 556.47 322.86 556 323.43L550 330.61C549.88 330.73 547 333.90000000000003 547 339.43V351.43C547 353.26 546.23 354.52 545.16 355.85C543.75 357.6 542 359.79 542 364.43V366.43C542 367.13 543.31 368.44 544 368.44L548 368.43V370.43L553 370.21V368.44Z " fill-opacity="0" fill="#ffffff" stroke-dasharray="0" stroke-linejoin="round" stroke-linecap="round" stroke-opacity="1" stroke="#43456c" stroke-miterlimit="50" stroke-width="2" transform="matrix(1,0,0,1,-521,-322.21375)"></path><path id="SvgjsPath1110" d="M557 361V381 " fill="#e2f3fb" fill-opacity="1" transform="matrix(1,0,0,1,-521,-322.21375)"></path><path id="SvgjsPath1111" d="M557 361V381 " fill-opacity="0" fill="#ffffff" stroke-dasharray="0" stroke-linejoin="round" stroke-linecap="round" stroke-opacity="1" stroke="#43456c" stroke-miterlimit="50" stroke-width="2" transform="matrix(1,0,0,1,-521,-322.21375)"></path><path id="SvgjsPath1112" d="M553 341C553 338.79086 554.79086 337 557 337C559.20914 337 561 338.79086 561 341C561 343.20914 559.20914 345 557 345C554.79086 345 553 343.20914 553 341Z " fill="#ffffff" fill-opacity="1" transform="matrix(1,0,0,1,-521,-322.21375)"></path><path id="SvgjsPath1113" d="M553 341C553 338.79086 554.79086 337 557 337C559.20914 337 561 338.79086 561 341C561 343.20914 559.20914 345 557 345C554.79086 345 553 343.20914 553 341Z " fill-opacity="0" fill="#ffffff" stroke-dasharray="0" stroke-linejoin="round" stroke-linecap="round" stroke-opacity="1" stroke="#43456c" stroke-miterlimit="50" stroke-width="2" transform="matrix(1,0,0,1,-521,-322.21375)"></path></svg>