<?xml version="1.0" encoding="UTF-8"?>
<svg width="12px" height="20px" viewBox="0 0 12 20" version="1.1" xmlns="http://www.w3.org/2000/svg" xmlns:xlink="http://www.w3.org/1999/xlink">
    <!-- Generator: Sketch 42 (36781) - http://www.bohemiancoding.com/sketch -->
    <title>Combined Shape</title>
    <desc>Created with Sketch.</desc>
    <defs></defs>
    <g id="Page-1" stroke="none" stroke-width="1" fill="none" fill-rule="evenodd">
        <g id="02-Detail-1" transform="translate(-970.000000, -3174.000000)" fill="#FFFFFF">
            <g id="last-block" transform="translate(0.000000, 2888.000000)">
                <g id="call-to-action" transform="translate(132.000000, 51.000000)">
                    <g id="share" transform="translate(478.000000, 95.000000)">
                        <g transform="translate(0.000000, 125.000000)" id="o">
                            <g transform="translate(339.000000, 0.000000)">
                                <path d="M27.01125,18.0573171 C28.20375,18.0573171 29.17375,19.0036585 29.17375,20.1670732 C29.17375,21.3295122 28.2035,22.2758537 27.01125,22.2758537 C25.8195,22.2758537 24.84925,21.3295122 24.84925,20.1670732 C24.849,19.0034146 25.81975,18.0573171 27.01125,18.0573171 L27.01125,18.0573171 Z M27.01125,25.2607317 C24.131,25.2607317 21.78825,22.9760976 21.78825,20.1670732 C21.78825,17.3568293 24.131,15.0709756 27.01125,15.0709756 C29.892,15.0709756 32.23425,17.3565854 32.23425,20.1670732 C32.23425,22.9760976 29.89175,25.2607317 27.01125,25.2607317 Z M29.12425,29.4170732 L32.0435,32.2665854 C32.64225,32.8485366 32.64225,33.7941463 32.0435,34.3773171 C31.4465,34.9604878 30.47775,34.9604878 29.881,34.3773171 L27.01075,31.5780488 L24.14225,34.3770732 C23.84325,34.6680488 23.45175,34.8139024 23.05975,34.8139024 C22.6685,34.8139024 22.2775,34.6680488 21.9785,34.3770732 C21.38075,33.7941463 21.38075,32.8490244 21.97775,32.2660976 L24.8975,29.4170732 C23.8345,29.1809756 22.809,28.77 21.86525,28.1919512 C21.15075,27.7529268 20.93525,26.8312195 21.38575,26.1336585 C21.835,25.4353659 22.7795,25.2246341 23.4955,25.6643902 C25.6335,26.9758537 28.3875,26.9768293 30.52725,25.6643902 C31.243,25.2246341 32.18725,25.4353659 32.63725,26.1336585 C33.0875,26.8307317 32.872,27.752439 32.157,28.1919512 C31.213,28.7707317 30.1875,29.1807317 29.12425,29.4170732 Z" id="Combined-Shape"></path>
                            </g>
                        </g>
                    </g>
                </g>
            </g>
        </g>
    </g>
</svg>