<?xml version="1.0" encoding="utf-8"?>
<!-- Generator: Adobe Illustrator 21.0.2, SVG Export Plug-In . SVG Version: 6.00 Build 0)  -->
<svg version="1.1" id="Layer_1" xmlns="http://www.w3.org/2000/svg" xmlns:xlink="http://www.w3.org/1999/xlink" x="0px" y="0px"
	 viewBox="0 0 24 19" style="enable-background:new 0 0 24 19;" xml:space="preserve">
<style type="text/css">
	.st0{enable-background:new    ;}
	.st1{fill:#F6F6F6;}
</style>
<title>im</title>
<desc>Created with Sketch.</desc>
<g id="Symbols">
	<g id="logo-_x5B_taker.im_x5D__x2F_Green" transform="translate(-64.000000, -7.000000)">
		<g class="st0">
			<path class="st1" d="M72.4,20.7c-0.2,0.6-0.5,1.2-0.8,1.7s-0.6,0.9-0.9,1.2s-0.6,0.6-0.9,0.8s-0.6,0.4-0.9,0.5s-0.6,0.2-0.8,0.2
				s-0.5,0.1-0.7,0.1c-0.4,0-0.7-0.1-1-0.2s-0.6-0.3-0.8-0.5s-0.4-0.5-0.5-0.9s-0.2-0.8-0.2-1.3c0-0.2,0-0.5,0-0.7s0.1-0.5,0.1-0.8
				l1.6-7.7h3.5l-1.7,8.2c0,0.1-0.1,0.3-0.1,0.4s0,0.3,0,0.4c0,0.3,0.1,0.6,0.2,0.7s0.4,0.2,0.7,0.2c0.2,0,0.5-0.1,0.7-0.2
				s0.4-0.3,0.6-0.4s0.4-0.4,0.5-0.7s0.3-0.5,0.4-0.8H72.4z M70.9,9.8c0,0.3-0.1,0.5-0.2,0.7s-0.2,0.4-0.4,0.6s-0.4,0.3-0.6,0.4
				s-0.5,0.1-0.7,0.1s-0.5,0-0.7-0.1s-0.4-0.2-0.6-0.4s-0.3-0.4-0.4-0.6s-0.1-0.5-0.1-0.7s0-0.5,0.1-0.7s0.2-0.4,0.4-0.6
				S68,8.1,68.3,8s0.5-0.2,0.7-0.2s0.5,0.1,0.7,0.2s0.4,0.2,0.6,0.4s0.3,0.4,0.4,0.6S70.9,9.5,70.9,9.8z"/>
			<path class="st1" d="M76.4,25l1.8-8.3c0-0.2,0.1-0.4,0.1-0.6c0-0.1,0-0.3,0-0.4s-0.1-0.2-0.1-0.3s-0.1-0.2-0.2-0.2
				s-0.2-0.1-0.3-0.1c-0.2,0-0.5,0.1-0.7,0.2s-0.4,0.3-0.5,0.5s-0.3,0.4-0.4,0.7s-0.2,0.6-0.3,0.9L74,25h-3.5L73,13h3.5l-0.3,1.2
				c0.3-0.3,0.5-0.5,0.8-0.7s0.5-0.3,0.8-0.4s0.5-0.2,0.7-0.2s0.5-0.1,0.7-0.1c0.3,0,0.6,0,0.9,0.1s0.5,0.2,0.7,0.4s0.4,0.4,0.5,0.6
				s0.3,0.6,0.3,1c0.3-0.4,0.6-0.8,0.9-1.1s0.6-0.5,0.9-0.6S84,13,84.2,13s0.5-0.1,0.7-0.1c0.4,0,0.7,0.1,1.1,0.2s0.6,0.3,0.8,0.5
				s0.4,0.5,0.6,0.8s0.2,0.8,0.2,1.2c0,0.3,0,0.7-0.1,1s-0.1,0.8-0.2,1.1s-0.2,0.8-0.3,1.2s-0.2,0.8-0.3,1.1s-0.2,0.7-0.2,1
				s-0.1,0.6-0.1,0.8c0,0.3,0.1,0.5,0.2,0.7s0.4,0.3,0.8,0.3c0.4,0,0.6-0.1,0.8-0.2c-0.1,0.4-0.2,0.8-0.3,1.1s-0.4,0.6-0.6,0.8
				s-0.5,0.4-0.8,0.4s-0.6,0.1-0.9,0.1c-0.5,0-0.8-0.1-1.2-0.2s-0.6-0.4-0.7-0.6s-0.3-0.5-0.4-0.9s-0.1-0.7-0.1-1
				c0-0.4,0.1-0.9,0.2-1.4s0.2-1.1,0.4-1.7s0.3-1.1,0.4-1.7s0.2-1,0.2-1.4c0-0.8-0.3-1.2-0.9-1.2c-0.2,0-0.4,0.1-0.6,0.2
				s-0.4,0.3-0.5,0.5s-0.3,0.4-0.4,0.7s-0.2,0.6-0.3,0.9L79.9,25H76.4z"/>
		</g>
	</g>
</g>
</svg>
