<?xml version="1.0" encoding="UTF-8"?>
<svg width="7px" height="14px" viewBox="0 0 7 14" version="1.1" xmlns="http://www.w3.org/2000/svg" xmlns:xlink="http://www.w3.org/1999/xlink">
    <!-- Generator: Sketch 42 (36781) - http://www.bohemiancoding.com/sketch -->
    <title>icon</title>
    <desc>Created with Sketch.</desc>
    <defs>
        <rect id="path-1" x="0" y="0" width="4" height="9" rx="1"></rect>
        <mask id="mask-2" maskContentUnits="userSpaceOnUse" maskUnits="objectBoundingBox" x="0" y="0" width="4" height="9" fill="white">
            <use xlink:href="#path-1"></use>
        </mask>
    </defs>
    <g id="Symbols" stroke="none" stroke-width="1" fill="none" fill-rule="evenodd">
        <g id="user-small-card/status-3" transform="translate(-38.000000, -1.000000)" stroke="#91949C">
            <g id="status-3" transform="translate(38.000000, 0.000000)">
                <g id="icon" transform="translate(0.000000, 1.000000)">
                    <path d="M3.42095947,11.0098877 C2.42095947,10.0188293 3.00138855,8.48690796 3.00138855,8.48690796 L1.00308228,8.48690796 C1.00308228,8.48690796 1.60644531,10.0221252 0.606445312,11.0098877 C1.60644531,11.6494751 2,13.220459 2,13.220459 C2,13.220459 2.37976074,11.6384888 3.42095947,11.0098877 Z" id="Combined-Shape"></path>
                    <use id="Rectangle" mask="url(#mask-2)" stroke-width="2" xlink:href="#path-1"></use>
                    <path d="M3.50720215,1.95654297 C4.45153809,1.47216797 5.52630615,1.86309814 5.52630615,3.03082275 C5.52630615,4.19854736 4.47027588,4.27624512 4.47027588,5.45227051 C4.47027588,6.6282959 5.35473633,6.67871094 5.72131348,6.67871094" id="Path-4"></path>
                </g>
            </g>
        </g>
    </g>
</svg>