<?xml version="1.0" encoding="UTF-8"?>
<svg width="20px" height="20px" viewBox="0 0 20 20" version="1.1" xmlns="http://www.w3.org/2000/svg" xmlns:xlink="http://www.w3.org/1999/xlink">
    <!-- Generator: Sketch 42 (36781) - http://www.bohemiancoding.com/sketch -->
    <title>icon/edit ok</title>
    <desc>Created with Sketch.</desc>
    <defs>
        <rect id="path-1" x="0" y="1" width="20" height="20" rx="3"></rect>
        <mask id="mask-2" maskContentUnits="userSpaceOnUse" maskUnits="objectBoundingBox" x="0" y="0" width="20" height="20" fill="white">
            <use xlink:href="#path-1"></use>
        </mask>
    </defs>
    <g id="Reviews" stroke="none" stroke-width="1" fill="none" fill-rule="evenodd">
        <g id="02-Detail-ver-2,3" transform="translate(-1205.000000, -182.000000)">
            <g id="link-copy-2" transform="translate(1205.000000, 181.000000)">
                <g id="icon/edit-ok">
                    <use id="Rectangle-12" stroke="#99CC00" mask="url(#mask-2)" stroke-width="4" xlink:href="#path-1"></use>
                    <g id="Group" transform="translate(11.838835, 8.545942) rotate(-315.000000) translate(-11.838835, -8.545942) translate(7.338835, 1.545942)" fill="#99CC00">
                        <path d="M0.414213562,13 C0.414213562,12.4477153 0.863734236,12 1.41591571,12 L7.99829785,12 C8.55152267,12 9,12.4438648 9,13 L9,13 C9,13.5522847 8.55047933,14 7.99829785,14 L1.41591571,14 C0.86269089,14 0.414213562,13.5561352 0.414213562,13 L0.414213562,13 Z" id="Rectangle"></path>
                        <path d="M1.20710678,7.20710678 C1.20710678,6.65482203 1.65913021,6.20710678 2.2061021,6.20710678 L13.7938979,6.20710678 C14.3456278,6.20710678 14.7928932,6.6509716 14.7928932,7.20710678 L14.7928932,7.20710678 C14.7928932,7.75939153 14.3408698,8.20710678 13.7938979,8.20710678 L2.2061021,8.20710678 C1.65437222,8.20710678 1.20710678,7.76324196 1.20710678,7.20710678 L1.20710678,7.20710678 Z" id="Rectangle" transform="translate(8.000000, 7.207107) rotate(-90.000000) translate(-8.000000, -7.207107) "></path>
                    </g>
                </g>
            </g>
        </g>
    </g>
</svg>