<svg id="SvgjsSvg1114" xmlns="http://www.w3.org/2000/svg" version="1.1" xmlns:xlink="http://www.w3.org/1999/xlink" xmlns:svgjs="http://svgjs.com/svgjs" width="57.65230192570516" height="64" viewBox="0 0 57.65230192570516 64"><title>icon 3</title><desc>Created with Avocode.</desc><defs id="SvgjsDefs1115"></defs><path id="SvgjsPath1116" d="M718 369V369H745V369V385.12C745 386.22457 744.10457 387.12 743 387.12H721C719.89543 387.12 718.95066 386.22593 718.88979 385.12304Z " fill="#f9cab1" fill-opacity="1" transform="matrix(1,0,0,1,-692.1738490371474,-325)"></path><path id="SvgjsPath1117" d="M718 369V369H745V369V385.12C745 386.22457 744.10457 387.12 743 387.12H721C719.89543 387.12 718.95066 386.22593 718.88979 385.12304Z " fill-opacity="0" fill="#ffffff" stroke-dasharray="0" stroke-linejoin="round" stroke-linecap="round" stroke-opacity="1" stroke="#43456c" stroke-miterlimit="50" stroke-width="2" transform="matrix(1,0,0,1,-692.1738490371474,-325)"></path><path id="SvgjsPath1118" d="M745.49 364.88C745.51 368.18 744.95 372.28 744.95 372.28H718.07L717.79889 367.72042999999996C715.76873 361.87104999999997 711.82547 357.96583999999996 706.89556 355.99251C701.8875400000001 354.00234 701.7908100000001 353.55118 697.89263 352.00154C693.0772400000001 350.52419999999995 693.1187100000001 346.49034 695.8906400000001 343.99447999999995C697.0458900000001 342.95428999999996 712.88971 347.42920999999996 714.7190600000001 347.95045999999996C714.1788500000001 343.36524 713.8900000000001 332.81688999999994 713.8900000000001 330.99999999999994C713.8900000000001 328.99999999999994 714.6300000000001 325.99999999999994 717.6300000000001 325.99999999999994C720.6300000000001 325.99999999999994 722.5800000000002 330.1499999999999 722.5800000000002 330.1499999999999C722.5800000000002 330.1499999999999 723.7900000000002 326.9899999999999 727.9400000000002 327.61999999999995C732.0000000000001 328.24999999999994 731.8600000000001 332.46999999999997 731.8600000000001 332.46999999999997C731.8600000000001 332.46999999999997 733.4600000000002 329.33 737.1400000000001 329.85999999999996C741.0500000000001 330.42999999999995 741.6100000000001 334.75999999999993 741.6100000000001 334.75999999999993C741.6100000000001 334.75999999999993 748.4900000000001 333.4699999999999 748.4900000000001 339.87999999999994C749.0900000000001 343.4099999999999 749.3500000000001 357.38999999999993 745.4900000000001 364.87999999999994Z " fill="#f9cab1" fill-opacity="1" transform="matrix(1,0,0,1,-692.1738490371474,-325)"></path><path id="SvgjsPath1119" d="M745.49 364.88C745.51 368.18 744.95 372.28 744.95 372.28H718.07L717.79889 367.72042999999996C715.76873 361.87104999999997 711.82547 357.96583999999996 706.89556 355.99251C701.8875400000001 354.00234 701.7908100000001 353.55118 697.89263 352.00154C693.0772400000001 350.52419999999995 693.1187100000001 346.49034 695.8906400000001 343.99447999999995C697.0458900000001 342.95428999999996 712.88971 347.42920999999996 714.7190600000001 347.95045999999996C714.1788500000001 343.36524 713.8900000000001 332.81688999999994 713.8900000000001 330.99999999999994C713.8900000000001 328.99999999999994 714.6300000000001 325.99999999999994 717.6300000000001 325.99999999999994C720.6300000000001 325.99999999999994 722.5800000000002 330.1499999999999 722.5800000000002 330.1499999999999C722.5800000000002 330.1499999999999 723.7900000000002 326.9899999999999 727.9400000000002 327.61999999999995C732.0000000000001 328.24999999999994 731.8600000000001 332.46999999999997 731.8600000000001 332.46999999999997C731.8600000000001 332.46999999999997 733.4600000000002 329.33 737.1400000000001 329.85999999999996C741.0500000000001 330.42999999999995 741.6100000000001 334.75999999999993 741.6100000000001 334.75999999999993C741.6100000000001 334.75999999999993 748.4900000000001 333.4699999999999 748.4900000000001 339.87999999999994C749.0900000000001 343.4099999999999 749.3500000000001 357.38999999999993 745.4900000000001 364.87999999999994Z " fill-opacity="0" fill="#ffffff" stroke-dasharray="0" stroke-linejoin="round" stroke-linecap="round" stroke-opacity="1" stroke="#43456c" stroke-miterlimit="50" stroke-width="2" transform="matrix(1,0,0,1,-692.1738490371474,-325)"></path><path id="SvgjsPath1120" d="M718 369H746V377H718Z " fill="#a3acf9" fill-opacity="1" transform="matrix(1,0,0,1,-692.1738490371474,-325)"></path><path id="SvgjsPath1121" d="M718 369H746V377H718Z " fill-opacity="0" fill="#ffffff" stroke-dasharray="0" stroke-linejoin="round" stroke-linecap="round" stroke-opacity="1" stroke="#43456c" stroke-miterlimit="50" stroke-width="2" transform="matrix(1,0,0,1,-692.1738490371474,-325)"></path><path id="SvgjsPath1122" d="M722 372C722 367.02944 726.02944 363 731 363C735.97056 363 740 367.02944 740 372C740 376.97056 735.97056 381 731 381C726.02944 381 722 376.97056 722 372Z " fill="#a7b1ff" fill-opacity="1" transform="matrix(1,0,0,1,-692.1738490371474,-325)"></path><path id="SvgjsPath1123" d="M722 372C722 367.02944 726.02944 363 731 363C735.97056 363 740 367.02944 740 372C740 376.97056 735.97056 381 731 381C726.02944 381 722 376.97056 722 372Z " fill-opacity="0" fill="#ffffff" stroke-dasharray="0" stroke-linejoin="round" stroke-linecap="round" stroke-opacity="1" stroke="#43456c" stroke-miterlimit="50" stroke-width="2" transform="matrix(1,0,0,1,-692.1738490371474,-325)"></path><path id="SvgjsPath1124" d="M734.4 372H730.4 " fill="#e2f3fb" fill-opacity="1" transform="matrix(1,0,0,1,-692.1738490371474,-325)"></path><path id="SvgjsPath1125" d="M734.4 372H730.4 " fill-opacity="0" fill="#ffffff" stroke-dasharray="0" stroke-linejoin="round" stroke-linecap="round" stroke-opacity="1" stroke="#43456c" stroke-miterlimit="50" stroke-width="2" transform="matrix(1,0,0,1,-692.1738490371474,-325)"></path><path id="SvgjsPath1126" d="M731 368V372 " fill="#e2f3fb" fill-opacity="1" transform="matrix(1,0,0,1,-692.1738490371474,-325)"></path><path id="SvgjsPath1127" d="M731 368V372 " fill-opacity="0" fill="#ffffff" stroke-dasharray="0" stroke-linejoin="round" stroke-linecap="round" stroke-opacity="1" stroke="#43456c" stroke-miterlimit="50" stroke-width="2" transform="matrix(1,0,0,1,-692.1738490371474,-325)"></path></svg>