<?xml version="1.0" encoding="UTF-8"?>
<svg width="21px" height="20px" viewBox="0 0 21 20" version="1.1" xmlns="http://www.w3.org/2000/svg" xmlns:xlink="http://www.w3.org/1999/xlink">
    <!-- Generator: Sketch 42 (36781) - http://www.bohemiancoding.com/sketch -->
    <title>Fill 4</title>
    <desc>Created with Sketch.</desc>
    <defs></defs>
    <g id="Page-1" stroke="none" stroke-width="1" fill="none" fill-rule="evenodd">
        <g id="02-Detail-1" transform="translate(-1078.000000, -3174.000000)" fill="#FFFFFF">
            <g id="last-block" transform="translate(0.000000, 2888.000000)">
                <g id="call-to-action" transform="translate(132.000000, 51.000000)">
                    <g id="share" transform="translate(478.000000, 95.000000)">
                        <g transform="translate(0.000000, 125.000000)" id="m">
                            <g transform="translate(452.000000, 0.000000)">
                                <path d="M30.1264997,24.9048308 C30.0070037,22.5998845 28.2838329,21.214013 26.2024501,21.214013 L26.1240739,21.214013 C23.7222873,21.214013 22.3901692,23.0888706 22.3901692,25.2184941 C22.3901692,27.6034314 24.0018472,29.1095634 26.1146909,29.1095634 C28.4706661,29.1095634 30.0199744,27.3966053 30.1320191,25.3705318 L30.1264997,24.9048308 L30.1264997,24.9048308 Z M26.1359407,19.1520531 C27.7407195,19.1520531 29.2494598,19.8560835 30.3574884,20.9584253 L30.3574884,20.9628084 C30.3574884,20.4332789 30.7162524,20.0344196 31.2146583,20.0344196 L31.3405016,20.0335978 C32.1201233,20.0335978 32.2799112,20.7658442 32.2799112,20.997599 L32.2837748,29.2279062 C32.2288564,29.7662019 32.8439985,30.0442528 33.1851002,29.6990861 C34.5163904,28.3408827 36.1090264,22.7174056 32.3574594,19.4588679 C28.8608909,16.4211274 24.1696384,16.921893 21.6745732,18.6288243 C19.0222037,20.4447844 17.3249743,24.4632366 18.9736326,28.2376066 C20.770764,32.3554997 25.9135071,33.5827589 28.9698999,32.358513 C30.5175524,31.7383088 31.2325965,33.8153355 29.6250581,34.4936154 C27.1962262,35.5211711 20.4362856,35.4176211 17.278335,29.9875468 C15.1447935,26.3208359 15.258494,19.8692327 20.9170293,16.5268689 C25.2459302,13.9701701 30.9530366,14.6783097 34.3944107,18.2461276 C37.9917091,21.9755712 37.7819702,28.9591693 34.2729829,31.6758501 C32.6833827,32.9088621 30.322164,31.7081752 30.3373425,29.9105692 L30.3207841,29.3226901 C29.2138594,30.4132524 27.7407195,31.0493452 26.1359407,31.0493452 C22.9647435,31.0493452 20.1746639,28.2795197 20.1746639,25.1327503 C20.1746639,21.9536558 22.9647435,19.1520531 26.1359407,19.1520531 L26.1359407,19.1520531 Z" id="Fill-4"></path>
                            </g>
                        </g>
                    </g>
                </g>
            </g>
        </g>
    </g>
</svg>