<?xml version="1.0" encoding="UTF-8"?>
<svg width="18px" height="18px" viewBox="0 0 18 18" version="1.1" xmlns="http://www.w3.org/2000/svg" xmlns:xlink="http://www.w3.org/1999/xlink">
    <!-- Generator: Sketch 42 (36781) - http://www.bohemiancoding.com/sketch -->
    <title>icon</title>
    <desc>Created with Sketch.</desc>
    <defs>
        <circle id="path-1" cx="9" cy="9" r="7"></circle>
        <mask id="mask-2" maskContentUnits="userSpaceOnUse" maskUnits="objectBoundingBox" x="0" y="0" width="14" height="14" fill="white">
            <use xlink:href="#path-1"></use>
        </mask>
    </defs>
    <g id="Page-1" stroke="none" stroke-width="1" fill="none" fill-rule="evenodd">
        <g id="01_Main_page-3/profile-menu" transform="translate(-1141.000000, -312.000000)">
            <g id="drop-down-menu" transform="translate(1097.000000, 72.000000)">
                <g id="menu" transform="translate(44.000000, 194.000000)">
                    <g id="2" transform="translate(0.000000, 44.000000)">
                        <g id="icon" transform="translate(0.000000, 2.000000)">
                            <use id="Oval" stroke="#6A7086" mask="url(#mask-2)" stroke-width="4" xlink:href="#path-1"></use>
                            <g id="Group-4" transform="translate(8.000000, 0.000000)" fill="#6A7086">
                                <rect id="Rectangle-2" x="0" y="0" width="2" height="4" rx="1"></rect>
                                <rect id="Rectangle-2-Copy" x="0" y="14" width="2" height="4" rx="1"></rect>
                            </g>
                            <g id="Group-4" transform="translate(9.000000, 9.000000) rotate(-90.000000) translate(-9.000000, -9.000000) translate(8.000000, 0.000000)" fill="#6A7086">
                                <rect id="Rectangle-2" x="0" y="0" width="2" height="4" rx="1"></rect>
                                <rect id="Rectangle-2-Copy" x="0" y="14" width="2" height="4" rx="1"></rect>
                            </g>
                            <g id="Group-4" transform="translate(9.000000, 9.000000) rotate(-135.000000) translate(-9.000000, -9.000000) translate(8.000000, 0.000000)" fill="#6A7086">
                                <rect id="Rectangle-2" x="4.72510919e-13" y="4.1033843e-13" width="2" height="4" rx="1"></rect>
                                <rect id="Rectangle-2-Copy" x="4.74287276e-13" y="14" width="2" height="4" rx="1"></rect>
                            </g>
                            <g id="Group-4" transform="translate(9.000000, 9.000000) rotate(-225.000000) translate(-9.000000, -9.000000) translate(8.000000, 0.000000)" fill="#6A7086">
                                <rect id="Rectangle-2" x="-1.687539e-13" y="-2.30926389e-13" width="2" height="4" rx="1"></rect>
                                <rect id="Rectangle-2-Copy" x="1.54987134e-13" y="14" width="2" height="4" rx="1"></rect>
                            </g>
                        </g>
                    </g>
                </g>
            </g>
        </g>
    </g>
</svg>