<svg id="SvgjsSvg1128" xmlns="http://www.w3.org/2000/svg" version="1.1" xmlns:xlink="http://www.w3.org/1999/xlink" xmlns:svgjs="http://svgjs.com/svgjs" width="64" height="58" viewBox="0 0 64 58"><title>icon 4</title><desc>Created with Avocode.</desc><defs id="SvgjsDefs1129"></defs><path id="SvgjsPath1130" d="M855 359C855 359 855.82 359 861 359C866.18 359 870.28 354.16 873.05 350.75C876.04 347.09 877.51 346.3 879.02 345.94C880.6 345.56 882.21 345.71999999999997 885 346.75C890.47 348.77 892.8 343.87 897.13 339.31C901.47 334.75 904.99 335 908 335C913.98 335 915 336 915 336V389H855Z " fill="#ffffff" fill-opacity="1" transform="matrix(1,0,0,1,-854,-333)"></path><path id="SvgjsPath1131" d="M855 359C855 359 855.82 359 861 359C866.18 359 870.28 354.16 873.05 350.75C876.04 347.09 877.51 346.3 879.02 345.94C880.6 345.56 882.21 345.71999999999997 885 346.75C890.47 348.77 892.8 343.87 897.13 339.31C901.47 334.75 904.99 335 908 335C913.98 335 915 336 915 336V389H855Z " fill-opacity="0" fill="#ffffff" stroke-dasharray="0" stroke-linejoin="round" stroke-linecap="round" stroke-opacity="1" stroke="#43456c" stroke-miterlimit="50" stroke-width="2" transform="matrix(1,0,0,1,-854,-333)"></path><path id="SvgjsPath1132" d="M915 389.22V353H909.06C899.4799999999999 353 900.6099999999999 362.59 891.1999999999999 360.82C881.79 359.04 879.5099999999999 359.04 872.9599999999999 365.07C870.55 367.3 866.2299999999999 371.11 860.9699999999999 371.11H854.9999999999999V389.22Z " fill="#a7b1ff" fill-opacity="1" transform="matrix(1,0,0,1,-854,-333)"></path><path id="SvgjsPath1133" d="M915 389.22V353H909.06C899.4799999999999 353 900.6099999999999 362.59 891.1999999999999 360.82C881.79 359.04 879.5099999999999 359.04 872.9599999999999 365.07C870.55 367.3 866.2299999999999 371.11 860.9699999999999 371.11H854.9999999999999V389.22Z " fill-opacity="0" fill="#ffffff" stroke-dasharray="0" stroke-linejoin="round" stroke-linecap="round" stroke-opacity="1" stroke="#43456c" stroke-miterlimit="50" stroke-width="2" transform="matrix(1,0,0,1,-854,-333)"></path><path id="SvgjsPath1134" d="M855 378.31C855 378.31 856.67 378.31 860.75 378.31C864.84 378.31 867.22 378.26 873.23 376.12C879.24 373.98 884.4200000000001 371.04 891.0500000000001 371.04C896.8100000000001 371.04 900.8100000000001 374.18 903.2 372.18C905.59 370.17 906.7700000000001 365 912.32 365C919.2 365 915 365 915 365V389.14H855Z " fill="#6f6ac4" fill-opacity="1" transform="matrix(1,0,0,1,-854,-333)"></path><path id="SvgjsPath1135" d="M855 378.31C855 378.31 856.67 378.31 860.75 378.31C864.84 378.31 867.22 378.26 873.23 376.12C879.24 373.98 884.4200000000001 371.04 891.0500000000001 371.04C896.8100000000001 371.04 900.8100000000001 374.18 903.2 372.18C905.59 370.17 906.7700000000001 365 912.32 365C919.2 365 915 365 915 365V389.14H855Z " fill-opacity="0" fill="#ffffff" stroke-dasharray="0" stroke-linejoin="round" stroke-linecap="round" stroke-opacity="1" stroke="#43456c" stroke-miterlimit="50" stroke-width="2" transform="matrix(1,0,0,1,-854,-333)"></path></svg>