<svg id="SvgjsSvg1093" xmlns="http://www.w3.org/2000/svg" version="1.1" xmlns:xlink="http://www.w3.org/1999/xlink" xmlns:svgjs="http://svgjs.com/svgjs" width="50" height="27" viewBox="0 0 50 27"><title>icon 1</title><desc>Created with Avocode.</desc><defs id="SvgjsDefs1094"></defs><path id="SvgjsPath1095" d="M367 361.5C367 354.59644 372.59644 349 379.5 349H402.5C409.40356 349 415 354.59644 415 361.5V361.5C415 368.40356 409.40356 374 402.5 374H379.5C372.59644 374 367 368.40356 367 361.5Z " fill="#8be48f" fill-opacity="1" transform="matrix(1,0,0,1,-366,-348)"></path><path id="SvgjsPath1096" d="M367 361.5C367 354.59644 372.59644 349 379.5 349H402.5C409.40356 349 415 354.59644 415 361.5V361.5C415 368.40356 409.40356 374 402.5 374H379.5C372.59644 374 367 368.40356 367 361.5Z " fill-opacity="0" fill="#ffffff" stroke-dasharray="0" stroke-linejoin="round" stroke-linecap="round" stroke-opacity="1" stroke="#43456c" stroke-miterlimit="50" stroke-width="2" transform="matrix(1,0,0,1,-366,-348)"></path><path id="SvgjsPath1097" d="M390 361.5C390 354.59644 395.59644 349 402.5 349V349C409.40356 349 415 354.59644 415 361.5V361.5C415 368.40356 409.40356 374 402.5 374V374C395.59644 374 390 368.40356 390 361.5Z " fill="#ffffff" fill-opacity="1" transform="matrix(1,0,0,1,-366,-348)"></path><path id="SvgjsPath1098" d="M390 361.5C390 354.59644 395.59644 349 402.5 349V349C409.40356 349 415 354.59644 415 361.5V361.5C415 368.40356 409.40356 374 402.5 374V374C395.59644 374 390 368.40356 390 361.5Z " fill-opacity="0" fill="#ffffff" stroke-dasharray="0" stroke-linejoin="round" stroke-linecap="round" stroke-opacity="1" stroke="#43456c" stroke-miterlimit="50" stroke-width="2" transform="matrix(1,0,0,1,-366,-348)"></path><path id="SvgjsPath1099" d="M378 358V365.2 " fill-opacity="0" fill="#ffffff" stroke-dasharray="0" stroke-linejoin="round" stroke-linecap="round" stroke-opacity="1" stroke="#43456c" stroke-miterlimit="50" stroke-width="2" transform="matrix(1,0,0,1,-366,-348)"></path></svg>