<svg id="SvgjsSvg1064" xmlns="http://www.w3.org/2000/svg" version="1.1" xmlns:xlink="http://www.w3.org/1999/xlink" xmlns:svgjs="http://svgjs.com/svgjs" width="72" height="46" viewBox="0 0 72 46"><title>icon 2</title><desc>Created with Avocode.</desc><defs id="SvgjsDefs1065"></defs><path id="SvgjsPath1066" d="M553.1 380H562.02C562.74 380 563.36 379.54 563.59 378.91H586V342.35C586 340.5 584.47 339 582.58 339H531.4200000000001C529.5300000000001 339 528.0000000000001 340.5 528.0000000000001 342.35V378.91H551.5300000000001C551.7600000000001 379.54 552.3700000000001 380 553.1000000000001 380Z " fill="#a7b1ff" fill-opacity="1" transform="matrix(1,0,0,1,-521,-338)"></path><path id="SvgjsPath1067" d="M553.1 380H562.02C562.74 380 563.36 379.54 563.59 378.91H586V342.35C586 340.5 584.47 339 582.58 339H531.4200000000001C529.5300000000001 339 528.0000000000001 340.5 528.0000000000001 342.35V378.91H551.5300000000001C551.7600000000001 379.54 552.3700000000001 380 553.1000000000001 380Z " fill-opacity="0" fill="#ffffff" stroke-dasharray="0" stroke-linejoin="round" stroke-linecap="round" stroke-opacity="1" stroke="#43456c" stroke-miterlimit="50" stroke-width="2" transform="matrix(1,0,0,1,-521,-338)"></path><path id="SvgjsPath1068" d="M561.67 379H553.11C552.41 379 551.78 377.87 551.5600000000001 377H522.62C522.28 377 522 377.39 522 377.87V382.13C522 382.61 522.28 383 522.62 383H591.38C591.72 383 592 382.61 592 382.13V377.87C592 377.39 591.72 377 591.38 377H563.34C563.11 377.87 562.36 379 561.6700000000001 379Z " fill="#eceff1" fill-opacity="1" transform="matrix(1,0,0,1,-521,-338)"></path><path id="SvgjsPath1069" d="M561.67 379H553.11C552.41 379 551.78 377.87 551.5600000000001 377H522.62C522.28 377 522 377.39 522 377.87V382.13C522 382.61 522.28 383 522.62 383H591.38C591.72 383 592 382.61 592 382.13V377.87C592 377.39 591.72 377 591.38 377H563.34C563.11 377.87 562.36 379 561.6700000000001 379Z " fill-opacity="0" fill="#ffffff" stroke-dasharray="0" stroke-linejoin="round" stroke-linecap="round" stroke-opacity="1" stroke="#43456c" stroke-miterlimit="50" stroke-width="2" transform="matrix(1,0,0,1,-521,-338)"></path></svg>