<?xml version="1.0" encoding="UTF-8"?>
<svg width="13px" height="13px" viewBox="0 0 13 13" version="1.1" xmlns="http://www.w3.org/2000/svg" xmlns:xlink="http://www.w3.org/1999/xlink">
    <!-- Generator: Sketch 42 (36781) - http://www.bohemiancoding.com/sketch -->
    <title>Group 3</title>
    <desc>Created with Sketch.</desc>
    <defs>
        <rect id="path-1" x="4.74287276e-13" y="-4.01456646e-13" width="4" height="9" rx="1"></rect>
        <mask id="mask-2" maskContentUnits="userSpaceOnUse" maskUnits="objectBoundingBox" x="0" y="0" width="4" height="9" fill="white">
            <use xlink:href="#path-1"></use>
        </mask>
    </defs>
    <g id="Symbols" stroke="none" stroke-width="1" fill="none" fill-rule="evenodd">
        <g id="user-small-card/status-4" transform="translate(0.000000, -2.000000)" stroke="#91949C">
            <g id="status-4">
                <g id="Group-3" transform="translate(0.000000, 1.000000)">
                    <g id="Group-2" transform="translate(7.071068, 8.071068) rotate(-320.000000) translate(-7.071068, -8.071068) translate(4.071068, 1.071068)">
                        <path d="M3.42095947,11.0098877 C2.42095947,10.0188293 3.00138855,8.48690796 3.00138855,8.48690796 L1.00308228,8.48690796 C1.00308228,8.48690796 1.60644531,10.0221252 0.606445312,11.0098877 C1.60644531,11.6494751 2,13.220459 2,13.220459 C2,13.220459 2.37976074,11.6384888 3.42095947,11.0098877 Z" id="Combined-Shape"></path>
                        <use id="Rectangle" mask="url(#mask-2)" stroke-width="2" xlink:href="#path-1"></use>
                        <path d="M3.50720215,1.95654297 C4.45153809,1.47216797 5.52630615,1.86309814 5.52630615,3.03082275 C5.52630615,4.19854736 4.47027588,4.27624512 4.47027588,5.45227051 C4.47027588,6.6282959 4.57969357,6.71788329 4.57969357,6.71788329" id="Path-4"></path>
                    </g>
                    <g id="Group" transform="translate(6.101297, 7.761130) scale(-1, 1) rotate(17.000000) translate(-6.101297, -7.761130) translate(2.601297, 0.761130)">
                        <path d="M0.528442383,13.9315186 C0.528442383,13.9315186 3,6 6,2" id="Path-2"></path>
                        <path d="M1.32763672,11.7908936 C1.32763672,11.7908936 0.994939053,8.04156991 1.99493905,6.04156991 C2.99493905,4.04156991 5.69171698,0.843073018 6.64789374,0.50799001 C6.81390936,2.07110036 5.82147605,6.59872991 4.92377097,7.91647893 C4.02606589,9.23422795 1.32763672,11.7908936 1.32763672,11.7908936 Z" id="Path-3" fill="#FFFFFF"></path>
                    </g>
                </g>
            </g>
        </g>
    </g>
</svg>