<svg id="SvgjsSvg1000" xmlns="http://www.w3.org/2000/svg" version="1.1" xmlns:xlink="http://www.w3.org/1999/xlink" xmlns:svgjs="http://svgjs.com/svgjs" width="36" height="36" viewBox="0 0 36 36"><title>Combined Shape</title><desc>Created with Avocode.</desc><defs id="SvgjsDefs1001"></defs><path id="SvgjsPath1007" d="M1062 169C1062 164.58172 1065.58172 161 1070 161H1090C1094.41828 161 1098 164.58172 1098 169V189C1098 193.41828 1094.41828 197 1090 197H1070C1065.58172 197 1062 193.41828 1062 189ZM1074.78 170.07C1074.68 169.84 1074.54 169.63 1074.36 169.45999999999998C1074.1899999999998 169.27999999999997 1073.9799999999998 169.14 1073.75 169.04C1073.52 168.94 1073.27 168.89 1073.01 168.89C1072.74 168.89 1072.49 168.94 1072.26 169.04C1072.03 169.14 1071.83 169.28 1071.66 169.45999999999998C1071.49 169.62999999999997 1071.3500000000001 169.83999999999997 1071.26 170.07C1071.16 170.29999999999998 1071.11 170.54999999999998 1071.11 170.81C1071.11 171.08 1071.1599999999999 171.33 1071.26 171.56C1071.35 171.79 1071.49 171.99 1071.66 172.15C1071.8300000000002 172.32 1072.03 172.46 1072.26 172.55C1072.49 172.65 1072.74 172.70000000000002 1073.01 172.70000000000002C1073.27 172.70000000000002 1073.52 172.65 1073.75 172.55C1073.98 172.46 1074.19 172.32000000000002 1074.36 172.15C1074.54 171.99 1074.6799999999998 171.79 1074.78 171.56C1074.8799999999999 171.33 1074.93 171.08 1074.93 170.81C1074.93 170.55 1074.88 170.3 1074.78 170.07ZM1075.41 181.7C1075.3200000000002 182 1075.2 182.29 1075.0500000000002 182.54999999999998C1074.9 182.80999999999997 1074.7300000000002 183.04 1074.5400000000002 183.21999999999997C1074.3600000000001 183.40999999999997 1074.15 183.55999999999997 1073.9300000000003 183.65999999999997C1073.7100000000003 183.76999999999998 1073.4800000000002 183.81999999999996 1073.2400000000002 183.81999999999996C1072.9100000000003 183.81999999999996 1072.6600000000003 183.75999999999996 1072.5000000000002 183.62999999999997C1072.3500000000001 183.49999999999997 1072.2700000000002 183.26999999999995 1072.2700000000002 182.92999999999998C1072.2700000000002 182.79999999999998 1072.2800000000002 182.67999999999998 1072.2900000000002 182.54999999999998C1072.3000000000002 182.42 1072.3200000000002 182.29 1072.3600000000001 182.16L1074.0900000000001 174H1070.63L1069 181.7C1068.94 182 1068.89 182.29 1068.86 182.54999999999998C1068.83 182.80999999999997 1068.81 183.04999999999998 1068.81 183.26999999999998C1068.81 183.77999999999997 1068.8799999999999 184.20999999999998 1069.01 184.57C1069.14 184.93 1069.33 185.23 1069.56 185.45999999999998C1069.79 185.7 1070.06 185.86999999999998 1070.37 185.98C1070.6799999999998 186.09 1071.02 186.14 1071.3799999999999 186.14C1071.59 186.14 1071.83 186.11999999999998 1072.1 186.07999999999998C1072.37 186.04 1072.6499999999999 185.96999999999997 1072.9499999999998 185.85999999999999C1073.2499999999998 185.74999999999997 1073.5499999999997 185.58999999999997 1073.87 185.39C1074.1899999999998 185.19 1074.4899999999998 184.92 1074.79 184.58999999999997C1074.79361 184.58626999999998 1074.79722 184.58252999999996 1074.80083 184.57877999999997L1074.5 185.99999999999997H1077.95L1079.5800000000002 178.29999999999998C1079.68 177.99999999999997 1079.7900000000002 177.70999999999998 1079.91 177.42999999999998C1080.0400000000002 177.15999999999997 1080.18 176.92 1080.3400000000001 176.71999999999997C1080.5000000000002 176.51999999999998 1080.68 176.35999999999996 1080.88 176.23999999999998C1081.0800000000002 176.11999999999998 1081.2900000000002 176.05999999999997 1081.5300000000002 176.05999999999997C1081.6700000000003 176.05999999999997 1081.7800000000002 176.08999999999997 1081.8700000000001 176.14999999999998C1081.96 176.20999999999998 1082.0400000000002 176.28999999999996 1082.1000000000001 176.37999999999997C1082.15 176.47999999999996 1082.2 176.58999999999997 1082.22 176.71999999999997C1082.24 176.83999999999997 1082.25 176.97999999999996 1082.25 177.11999999999998C1082.25 177.32999999999998 1082.23 177.52999999999997 1082.18 177.70999999999998L1080.43 185.99999999999997H1083.88L1085.5100000000002 178.29999999999998C1085.6100000000001 177.99999999999997 1085.7100000000003 177.70999999999998 1085.8400000000001 177.43999999999997C1085.96 177.16999999999996 1086.1100000000001 176.93999999999997 1086.2600000000002 176.73999999999998C1086.4200000000003 176.54 1086.5900000000001 176.37999999999997 1086.7800000000002 176.26C1086.9600000000003 176.14 1087.1700000000003 176.09 1087.39 176.09C1087.96 176.09 1088.25 176.5 1088.25 177.32C1088.25 177.7 1088.2 178.16 1088.08 178.69C1087.97 179.22 1087.85 179.77 1087.71 180.34C1087.58 180.91 1087.46 181.47 1087.3500000000001 182.01C1087.2300000000002 182.54999999999998 1087.18 183.03 1087.18 183.42999999999998C1087.18 183.77999999999997 1087.21 184.10999999999999 1087.29 184.43999999999997C1087.37 184.75999999999996 1087.5 185.04999999999998 1087.69 185.29999999999998C1087.88 185.55999999999997 1088.13 185.76 1088.44 185.91C1088.74 186.06 1089.13 186.14 1089.5900000000001 186.14C1089.91 186.14 1090.2200000000003 186.08999999999997 1090.5100000000002 186C1090.8000000000002 185.91 1091.0700000000002 185.76 1091.3100000000002 185.55C1091.5400000000002 185.35000000000002 1091.7500000000002 185.10000000000002 1091.91 184.79000000000002C1092.0700000000002 184.48000000000002 1092.18 184.11 1092.24 183.67000000000002C1092.09 183.77 1091.82 183.82000000000002 1091.44 183.82000000000002C1091.0700000000002 183.82000000000002 1090.8200000000002 183.73000000000002 1090.69 183.54000000000002C1090.55 183.35000000000002 1090.48 183.11 1090.48 182.81000000000003C1090.48 182.59000000000003 1090.51 182.32000000000002 1090.57 182.02000000000004C1090.6299999999999 181.72000000000003 1090.7 181.39000000000004 1090.78 181.04000000000005C1090.86 180.69000000000005 1090.95 180.32000000000005 1091.05 179.94000000000005C1091.1599999999999 179.56000000000006 1091.25 179.17000000000004 1091.33 178.79000000000005C1091.4099999999999 178.40000000000006 1091.48 178.02000000000004 1091.54 177.65000000000006C1091.6 177.28000000000006 1091.6299999999999 176.93000000000006 1091.6299999999999 176.61000000000007C1091.6299999999999 176.14000000000007 1091.56 175.73000000000008 1091.4299999999998 175.38000000000008C1091.2999999999997 175.04000000000008 1091.11 174.76000000000008 1090.87 174.54000000000008C1090.6299999999999 174.32000000000008 1090.35 174.16000000000008 1090.03 174.0600000000001C1089.71 173.9600000000001 1089.35 173.91000000000008 1088.97 173.91000000000008C1088.75 173.91000000000008 1088.51 173.9300000000001 1088.24 173.98000000000008C1087.98 174.02000000000007 1087.7 174.12000000000006 1087.41 174.26000000000008C1087.1200000000001 174.40000000000006 1086.8200000000002 174.60000000000008 1086.52 174.8700000000001C1086.21 175.1400000000001 1085.92 175.50000000000009 1085.6299999999999 175.9500000000001C1085.57 175.5700000000001 1085.4599999999998 175.2500000000001 1085.31 174.9900000000001C1085.1599999999999 174.7300000000001 1084.98 174.5200000000001 1084.77 174.3500000000001C1084.56 174.1900000000001 1084.32 174.0700000000001 1084.05 173.9900000000001C1083.77 173.9200000000001 1083.48 173.88000000000008 1083.1699999999998 173.88000000000008C1082.9599999999998 173.88000000000008 1082.7299999999998 173.9000000000001 1082.4999999999998 173.94000000000008C1082.2699999999998 173.97000000000008 1082.0199999999998 174.04000000000008 1081.7699999999998 174.13000000000008C1081.5199999999998 174.23000000000008 1081.2699999999998 174.3700000000001 1081.0099999999998 174.54000000000008C1080.7499999999998 174.72000000000008 1080.4999999999998 174.95000000000007 1080.2399999999998 175.24000000000007L1080.4999999999998 174.00000000000006H1077.0399999999997L1075.4101699999997 181.70000000000005Z " fill="#ffffff" fill-opacity="1" transform="matrix(1,0,0,1,-1062,-161)"></path></svg>