<?xml version="1.0" encoding="UTF-8"?>
<svg width="21px" height="17px" viewBox="0 0 21 17" version="1.1" xmlns="http://www.w3.org/2000/svg" xmlns:xlink="http://www.w3.org/1999/xlink">
    <!-- Generator: Sketch 42 (36781) - http://www.bohemiancoding.com/sketch -->
    <title>Shape</title>
    <desc>Created with Sketch.</desc>
    <defs>
        <path d="M49.9831916,2.62024024 L47.6031621,7.66931517 L47.0952381,8 C46,8 46,8.54286552 46,9 L46,14 C46.0028517,14.1748841 46.9203307,15.0000232 47.0952381,15 L53,15 C53.5295653,15.0041516 54.5847929,14.2571172 54.6509743,13.7316872 C54.6920131,13.3309744 54.4926291,12.9438144 54.1425847,12.744506 L54.3863331,12.744506 C54.9158984,12.7486576 55.3647879,12.3558793 55.4309693,11.8304493 C55.4701932,11.4319183 55.2718393,11.0474798 54.9243208,10.8484913 L55.1645871,10.8484913 C55.6941524,10.8526429 56.1430419,10.4598646 56.2092233,9.93443464 C56.2577501,9.53084937 56.06124,9.13714437 55.709539,8.93332496 L55.9828854,8.93332496 C56.2572981,8.93294611 56.5199481,8.82185432 56.7113477,8.62521092 C56.9027473,8.42856752 57.0067012,8.16301141 56.9996647,7.88868877 C56.9688675,7.32819522 55.7258496,6.99073445 55.1645871,7 L51,7 L51.6666667,2.76190476 C51.655365,2.48738707 51.3864116,2.23758708 51.1471451,2.10253442 C50.9078785,1.96748176 50.6157928,1.96573719 50.3749302,2.09792215 C50.1754905,2.20779569 50.0328271,2.39801353 49.9831916,2.62024024 Z M41,15 C40.387146,15 40,14.5775757 40,14 L40,9 C40,8.42687988 40.47229,8 41,8 C41.52771,8 43,8 43,8 C43.5440674,8 44,8.43133545 44,9 L44,14 C44,14.5987549 43.5556641,15 43,15 L41,15 Z" id="path-1"></path>
        <mask id="mask-2" maskContentUnits="userSpaceOnUse" maskUnits="objectBoundingBox" x="-2" y="-2" width="21" height="17.0000172">
            <rect x="38" y="0" width="21" height="17.0000172" fill="white"></rect>
            <use xlink:href="#path-1" fill="black"></use>
        </mask>
    </defs>
    <g id="Page-1" stroke="none" stroke-width="1" fill="none" fill-rule="evenodd">
        <g id="02-Detail-2/5" transform="translate(-1147.000000, -541.000000)" fill-rule="nonzero" stroke="#BFC1CA" stroke-width="4">
            <g id="comments">
                <g id="comment-2" transform="translate(310.000000, 455.000000)">
                    <g id="rating" transform="translate(799.000000, 86.000000)">
                        <use id="Shape" mask="url(#mask-2)" transform="translate(48.500000, 8.500009) scale(-1, -1) translate(-48.500000, -8.500009) " xlink:href="#path-1"></use>
                    </g>
                </g>
            </g>
        </g>
    </g>
</svg>