<svg id="SvgjsSvg1087" xmlns="http://www.w3.org/2000/svg" version="1.1" xmlns:xlink="http://www.w3.org/1999/xlink" xmlns:svgjs="http://svgjs.com/svgjs" width="50" height="20" viewBox="0 0 50 20"><title>icon 5</title><desc>Created with Avocode.</desc><defs id="SvgjsDefs1088"></defs><path id="SvgjsPath1089" d="M1071.21 370H1026.79C1025.8 370 1025 369.19 1025 368.2V359.8C1025 358.8 1025.8 358 1026.79 358H1071.21C1072.2 358 1073 358.8 1073 359.8V368.2C1073 369.19 1072.2 370 1071.21 370Z " fill="#a7b1ff" fill-opacity="1" transform="matrix(1,0,0,1,-1024,-351)"></path><path id="SvgjsPath1090" d="M1071.21 370H1026.79C1025.8 370 1025 369.19 1025 368.2V359.8C1025 358.8 1025.8 358 1026.79 358H1071.21C1072.2 358 1073 358.8 1073 359.8V368.2C1073 369.19 1072.2 370 1071.21 370Z " fill-opacity="0" fill="#ffffff" stroke-dasharray="0" stroke-linejoin="round" stroke-linecap="round" stroke-opacity="1" stroke="#43456c" stroke-miterlimit="50" stroke-width="2" transform="matrix(1,0,0,1,-1024,-351)"></path><path id="SvgjsPath1091" d="M1037 353.8C1037 352.80589000000003 1037.80589 352 1038.8 352H1059.2C1060.1941100000001 352 1061 352.80589 1061 353.8V358V358H1037V358Z " fill="#ffffff" fill-opacity="1" transform="matrix(1,0,0,1,-1024,-351)"></path><path id="SvgjsPath1092" d="M1037 353.8C1037 352.80589000000003 1037.80589 352 1038.8 352H1059.2C1060.1941100000001 352 1061 352.80589 1061 353.8V358V358H1037V358Z " fill-opacity="0" fill="#ffffff" stroke-dasharray="0" stroke-linejoin="round" stroke-linecap="round" stroke-opacity="1" stroke="#43456c" stroke-miterlimit="50" stroke-width="2" transform="matrix(1,0,0,1,-1024,-351)"></path></svg>