<?xml version="1.0" encoding="UTF-8"?>
<svg width="19px" height="15px" viewBox="0 0 19 15" version="1.1" xmlns="http://www.w3.org/2000/svg" xmlns:xlink="http://www.w3.org/1999/xlink">
    <!-- Generator: Sketch 42 (36781) - http://www.bohemiancoding.com/sketch -->
    <title>Shape</title>
    <desc>Created with Sketch.</desc>
    <defs></defs>
    <g id="Page-1" stroke="none" stroke-width="1" fill="none" fill-rule="evenodd">
        <g id="02-Detail-1" transform="translate(-853.000000, -3177.000000)" fill="#FFFFFF">
            <g id="last-block" transform="translate(0.000000, 2888.000000)">
                <g id="call-to-action" transform="translate(132.000000, 51.000000)">
                    <g id="share" transform="translate(478.000000, 95.000000)">
                        <g transform="translate(0.000000, 125.000000)" id="t">
                            <g transform="translate(226.000000, 0.000000)">
                                <path d="M22.97512,33 C30.14496,33 34.06656,27.228602 34.06656,22.2236717 C34.06656,22.0597451 34.06656,21.8965569 34.05516,21.7341071 C34.8180718,21.1979569 35.4766302,20.5341048 36,19.7736335 C35.2885481,20.0799265 34.5338302,20.2807933 33.76104,20.3695288 C34.5748054,19.896196 35.1838539,19.1517255 35.47484,18.274665 C34.7096397,18.7158308 33.872491,19.0267425 32.99952,19.1939831 C31.7911829,17.9456261 29.8711467,17.6400863 28.3160574,18.4486929 C26.7609682,19.2572996 25.957569,20.9789561 26.35636,22.6482563 C23.2220408,22.4955901 20.3018016,21.0572255 18.3224,18.6911271 C17.2877533,20.4216935 17.8162308,22.6355996 19.52928,23.7470077 C18.9089233,23.7291437 18.3020923,23.5665504 17.76,23.2729496 L17.76,23.3209462 C17.7605078,25.1238383 19.0685311,26.6766679 20.8874,27.0336623 C20.3135009,27.1857301 19.7113612,27.2079593 19.12724,27.0986422 C19.6379204,28.641489 21.1013967,29.6984176 22.76916,29.728852 C21.3887986,30.7828793 19.6836052,31.3550687 17.92796,31.3533499 C17.6178067,31.3527714 17.3079551,31.334526 17,31.2987077 C18.7826833,32.4102161 20.8569342,32.999791 22.97512,32.9970464" id="Shape"></path>
                            </g>
                        </g>
                    </g>
                </g>
            </g>
        </g>
    </g>
</svg>