<?xml version="1.0" encoding="utf-8"?>
<!-- Generator: Adobe Illustrator 21.0.2, SVG Export Plug-In . SVG Version: 6.00 Build 0)  -->
<svg version="1.1" id="Layer_1" xmlns="http://www.w3.org/2000/svg" xmlns:xlink="http://www.w3.org/1999/xlink" x="0px" y="0px"
	 viewBox="0 0 94 36" style="enable-background:new 0 0 94 36;" xml:space="preserve">
<style type="text/css">
	.st0{fill:#99CC00;}
	.st1{enable-background:new    ;}
	.st2{fill:#F6F6F6;}
	.st3{fill:#262627;}
</style>
<title>logo [taker.im]/Green</title>
<desc>Created with Sketch.</desc>
<g id="Symbols">
	<g id="logo-_x5B_taker.im_x5D__x2F_Green">
		<path id="base" class="st0" d="M66,0h20c4.4,0,8,3.6,8,8v20c0,4.4-3.6,8-8,8H66c-4.4,0-8-3.6-8-8V8C58,3.6,61.6,0,66,0z"/>
		<g class="st1">
			<path class="st2" d="M72.4,20.7c-0.2,0.6-0.5,1.2-0.8,1.7s-0.6,0.9-0.9,1.2s-0.6,0.6-0.9,0.8s-0.6,0.4-0.9,0.5s-0.6,0.2-0.8,0.2
				s-0.5,0.1-0.7,0.1c-0.4,0-0.7-0.1-1-0.2s-0.6-0.3-0.8-0.5s-0.4-0.5-0.5-0.9s-0.2-0.8-0.2-1.3c0-0.2,0-0.5,0-0.7s0.1-0.5,0.1-0.8
				l1.6-7.7h3.5l-1.7,8.2c0,0.1-0.1,0.3-0.1,0.4s0,0.3,0,0.4c0,0.3,0.1,0.6,0.2,0.7s0.4,0.2,0.7,0.2c0.2,0,0.5-0.1,0.7-0.2
				s0.4-0.3,0.6-0.4s0.4-0.4,0.5-0.7s0.3-0.5,0.4-0.8H72.4z M70.9,9.8c0,0.3-0.1,0.5-0.2,0.7s-0.2,0.4-0.4,0.6s-0.4,0.3-0.6,0.4
				s-0.5,0.1-0.7,0.1s-0.5,0-0.7-0.1s-0.4-0.2-0.6-0.4s-0.3-0.4-0.4-0.6s-0.1-0.5-0.1-0.7s0-0.5,0.1-0.7s0.2-0.4,0.4-0.6
				S68,8.1,68.3,8s0.5-0.2,0.7-0.2s0.5,0.1,0.7,0.2s0.4,0.2,0.6,0.4s0.3,0.4,0.4,0.6S70.9,9.5,70.9,9.8z"/>
			<path class="st2" d="M76.4,25l1.8-8.3c0-0.2,0.1-0.4,0.1-0.6c0-0.1,0-0.3,0-0.4s-0.1-0.2-0.1-0.3s-0.1-0.2-0.2-0.2
				s-0.2-0.1-0.3-0.1c-0.2,0-0.5,0.1-0.7,0.2s-0.4,0.3-0.5,0.5s-0.3,0.4-0.4,0.7s-0.2,0.6-0.3,0.9L74,25h-3.5L73,13h3.5l-0.3,1.2
				c0.3-0.3,0.5-0.5,0.8-0.7s0.5-0.3,0.8-0.4s0.5-0.2,0.7-0.2s0.5-0.1,0.7-0.1c0.3,0,0.6,0,0.9,0.1s0.5,0.2,0.7,0.4s0.4,0.4,0.5,0.6
				s0.3,0.6,0.3,1c0.3-0.4,0.6-0.8,0.9-1.1s0.6-0.5,0.9-0.6S84,13,84.2,13s0.5-0.1,0.7-0.1c0.4,0,0.7,0.1,1.1,0.2s0.6,0.3,0.8,0.5
				s0.4,0.5,0.6,0.8s0.2,0.8,0.2,1.2c0,0.3,0,0.7-0.1,1s-0.1,0.8-0.2,1.1s-0.2,0.8-0.3,1.2s-0.2,0.8-0.3,1.1s-0.2,0.7-0.2,1
				s-0.1,0.6-0.1,0.8c0,0.3,0.1,0.5,0.2,0.7s0.4,0.3,0.8,0.3c0.4,0,0.6-0.1,0.8-0.2c-0.1,0.4-0.2,0.8-0.3,1.1s-0.4,0.6-0.6,0.8
				s-0.5,0.4-0.8,0.4s-0.6,0.1-0.9,0.1c-0.5,0-0.8-0.1-1.2-0.2s-0.6-0.4-0.7-0.6s-0.3-0.5-0.4-0.9s-0.1-0.7-0.1-1
				c0-0.4,0.1-0.9,0.2-1.4s0.2-1.1,0.4-1.7s0.3-1.1,0.4-1.7s0.2-1,0.2-1.4c0-0.8-0.3-1.2-0.9-1.2c-0.2,0-0.4,0.1-0.6,0.2
				s-0.4,0.3-0.5,0.5s-0.3,0.4-0.4,0.7s-0.2,0.6-0.3,0.9L79.9,25H76.4z"/>
		</g>
		<g class="st1">
			<path class="st3" d="M7.2,13.3v1.1H3.3v7.3c0,0.8,0.1,1.4,0.4,1.8s0.8,0.6,1.4,0.6c0.3,0,0.6-0.1,0.9-0.2
				c0.3-0.1,0.5-0.2,0.7-0.4c0.2-0.2,0.4-0.3,0.6-0.5c0.2,0.2,0.4,0.4,0.5,0.5c0.1,0.1,0.1,0.2,0.1,0.3c0,0.1-0.1,0.2-0.2,0.4
				s-0.3,0.3-0.6,0.5c-0.2,0.2-0.6,0.3-0.9,0.4c-0.4,0.1-0.8,0.2-1.2,0.2c-0.8,0-1.5-0.2-1.9-0.5s-0.8-0.7-1-1.3
				C2,23.3,2,23,1.9,22.7c0-0.4,0-0.7,0-1.1V9.8c0.1,0,0.2,0,0.2,0c0.1,0,0.2,0,0.4,0c0.1,0,0.3,0.1,0.4,0.2s0.2,0.2,0.3,0.4
				c0.1,0.2,0.1,0.4,0.1,0.7v2.3H7.2z"/>
			<path class="st3" d="M19.8,25c-0.3,0.1-0.6,0.1-0.9,0.1c-0.5,0-0.9-0.1-1.3-0.4c-0.4-0.2-0.6-0.6-0.6-1.2
				c-0.5,0.5-1.1,0.9-1.7,1.2c-0.7,0.3-1.4,0.5-2.3,0.5c-0.4,0-0.8,0-1.2-0.1c-0.4-0.1-0.8-0.3-1.2-0.5s-0.7-0.6-0.9-1
				c-0.2-0.4-0.4-1-0.4-1.7c0-0.9,0.2-1.5,0.7-2.1c0.5-0.5,1-1,1.7-1.3c0.7-0.3,1.4-0.5,2.1-0.6s1.5-0.2,2.1-0.2c0.2,0,0.4,0,0.6,0
				c0.2,0,0.4,0,0.6,0v-0.6c0-0.4,0-0.8-0.1-1.1c-0.1-0.3-0.2-0.6-0.4-0.9c-0.2-0.2-0.5-0.4-0.9-0.6s-0.9-0.2-1.5-0.2
				c-0.8,0-1.5,0.1-2.1,0.3c-0.6,0.2-1,0.5-1.4,0.7h-0.2c-0.2-0.3-0.4-0.6-0.4-0.8c0-0.1,0.1-0.3,0.2-0.4s0.3-0.2,0.5-0.3
				c0.4-0.2,1-0.4,1.6-0.6c0.7-0.1,1.3-0.2,1.9-0.2c0.8,0,1.5,0.1,2,0.3s1,0.5,1.3,0.8c0.3,0.4,0.6,0.8,0.7,1.3
				c0.1,0.5,0.2,1.1,0.2,1.8v5c0,0.5,0,0.8,0.1,1.1c0.1,0.3,0.2,0.5,0.3,0.6s0.3,0.2,0.4,0.3c0.2,0,0.4,0.1,0.6,0.1V25z M17,18.8
				c-0.1,0-0.2,0-0.3,0c-0.1,0-0.2,0-0.3,0c-0.7,0-1.3,0-2,0.1s-1.3,0.2-1.8,0.5c-0.5,0.2-1,0.5-1.3,0.9c-0.3,0.4-0.5,0.9-0.5,1.5
				c0,0.3,0,0.6,0.1,0.8c0.1,0.3,0.2,0.5,0.4,0.7c0.2,0.2,0.4,0.4,0.7,0.5c0.3,0.1,0.7,0.2,1.2,0.2c0.5,0,1-0.1,1.5-0.2
				c0.5-0.2,0.9-0.3,1.2-0.5s0.6-0.4,0.8-0.7c0.2-0.2,0.3-0.4,0.3-0.6V18.8z"/>
			<path class="st3" d="M22.4,25V7.3c0.1,0,0.1,0,0.2,0s0.1,0,0.1,0c0.1,0,0.2,0,0.4,0c0.1,0,0.3,0.1,0.4,0.2s0.2,0.2,0.3,0.4
				c0.1,0.2,0.1,0.4,0.1,0.7V25H22.4z M24.7,18.8v-0.7l4.1-4.1c0.2-0.2,0.5-0.4,0.7-0.5s0.4-0.2,0.7-0.2c0.1,0,0.3,0,0.4,0.1
				c0.1,0,0.2,0.1,0.3,0.1l0.3,0.2l-4.9,4.8l5.7,6.6c-0.2,0.1-0.5,0.1-0.8,0.1c-0.6,0-1.2-0.3-1.6-0.8L24.7,18.8z"/>
			<path class="st3" d="M42.4,23.6c0,0.1-0.1,0.3-0.3,0.5c-0.2,0.2-0.5,0.4-0.8,0.6s-0.8,0.4-1.3,0.5c-0.5,0.1-1,0.2-1.6,0.2
				c-0.8,0-1.5-0.1-2.2-0.3c-0.7-0.2-1.3-0.6-1.8-1.1c-0.5-0.5-0.9-1.2-1.1-1.9c-0.3-0.8-0.4-1.7-0.4-2.8c0-1,0.1-2,0.4-2.7
				c0.3-0.8,0.7-1.4,1.2-1.9s1.1-0.8,1.7-1.1c0.6-0.2,1.3-0.3,1.9-0.3c0.8,0,1.5,0.1,2.1,0.4c0.6,0.3,1.1,0.7,1.4,1.1
				c0.4,0.5,0.6,1,0.8,1.6c0.2,0.6,0.2,1.2,0.2,1.9c0,0.4,0,0.8-0.1,1.3h-8.2c0,0.7,0.1,1.3,0.3,1.9c0.2,0.6,0.4,1.1,0.7,1.5
				c0.3,0.4,0.7,0.7,1.2,1c0.5,0.2,1.1,0.3,1.8,0.3c0.5,0,1-0.1,1.4-0.2s0.7-0.2,1-0.4c0.3-0.2,0.5-0.3,0.7-0.5
				c0.2-0.2,0.3-0.3,0.4-0.4c0.2,0.2,0.3,0.4,0.4,0.5S42.4,23.5,42.4,23.6z M41.3,18.4c0-0.5,0-1.1-0.1-1.6
				c-0.1-0.5-0.3-0.9-0.5-1.3c-0.2-0.4-0.6-0.7-1-0.9s-1-0.3-1.6-0.3c-1.1,0-1.9,0.3-2.5,1s-1,1.7-1,3H41.3z"/>
			<path class="st3" d="M47.4,14.7c0.1-0.1,0.2-0.3,0.4-0.5c0.2-0.2,0.4-0.4,0.6-0.5c0.2-0.2,0.5-0.3,0.8-0.4c0.3-0.1,0.6-0.2,1-0.2
				c0.2,0,0.3,0,0.5,0c0.2,0,0.4,0.1,0.5,0.1c0.2,0.1,0.3,0.1,0.4,0.3c0.1,0.1,0.2,0.3,0.2,0.5s-0.1,0.4-0.2,0.6s-0.2,0.4-0.3,0.5
				c-0.2-0.2-0.4-0.3-0.6-0.4s-0.5-0.2-0.9-0.2c-0.3,0-0.6,0.1-0.9,0.2s-0.5,0.3-0.8,0.4c-0.2,0.2-0.4,0.4-0.5,0.6
				c-0.1,0.2-0.2,0.5-0.2,0.7V25H46V13.3h0.1c0.3,0,0.6,0.1,0.9,0.3C47.3,13.8,47.4,14.2,47.4,14.7z"/>
		</g>
	</g>
</g>
</svg>
