<svg xmlns="http://www.w3.org/2000/svg" width="13" height="20" viewBox="0 0 13 20"><path fill="#fe9e50" d="M9.02 5.1c0 1.16-.97 2.1-2.16 2.1A2.13 2.13 0 0 1 4.7 5.1c0-1.17.97-2.11 2.16-2.11 1.19 0 2.16.94 2.16 2.11zm3.06 0c0-2.81-2.34-5.1-5.22-5.1a5.17 5.17 0 0 0-5.22 5.1 5.16 5.16 0 0 0 5.22 5.09 5.16 5.16 0 0 0 5.22-5.09zm-.07 8.02c.71-.44.93-1.36.48-2.06-.45-.7-1.4-.91-2.11-.47a6.76 6.76 0 0 1-7.03 0 1.55 1.55 0 0 0-2.11.47c-.46.7-.24 1.62.47 2.06.95.58 1.97.99 3.04 1.23L1.83 17.2c-.6.58-.6 1.52 0 2.11.3.29.69.43 1.08.43.39 0 .78-.14 1.08-.43l2.87-2.8 2.87 2.8c.6.58 1.57.58 2.16 0 .6-.59.6-1.53 0-2.11l-2.92-2.85c1.07-.24 2.09-.65 3.04-1.23z"/></svg>