<svg id="SvgjsSvg1020" xmlns="http://www.w3.org/2000/svg" version="1.1" xmlns:xlink="http://www.w3.org/1999/xlink" xmlns:svgjs="http://svgjs.com/svgjs" width="12" height="17" viewBox="0 0 12 17"><title>Combined Shape</title><desc>Created with Avocode.</desc><defs id="SvgjsDefs1021"></defs><path id="SvgjsPath1022" d="M21 30C21 30 27 23.2 27 19.310000000000002C27 15.430000000000003 24.31 13.000000000000004 21 13.000000000000004C17.69 13.000000000000004 15 15.430000000000003 15 19.310000000000002C15 23.200000000000003 21 30 21 30ZM19 19.5C19 18.11929 20.11929 17 21.5 17C22.88071 17 24 18.11929 24 19.5C24 20.88071 22.88071 22 21.5 22C20.11929 22 19 20.88071 19 19.5Z " fill="#ffffff" fill-opacity="1" transform="matrix(1,0,0,1,-15,-13)"></path></svg>