<svg id="SvgjsSvg1046" xmlns="http://www.w3.org/2000/svg" version="1.1" xmlns:xlink="http://www.w3.org/1999/xlink" xmlns:svgjs="http://svgjs.com/svgjs" width="19" height="19" viewBox="0 0 19 19"><title>Group 2</title><desc>Created with Avocode.</desc><defs id="SvgjsDefs1047"></defs><path id="SvgjsPath1048" d="M21 30.5C21 29.67157 21.67157 29 22.5 29L38.5 29C39.32843 29 40 29.67157 40 30.5L40 30.5C40 31.32843 39.32843 32 38.5 32L22.5 32C21.67157 32 21 31.32843 21 30.5Z " fill="#ffffff" fill-opacity="1" transform="matrix(1,0,0,1,-21,-21)"></path><path id="SvgjsPath1049" d="M30.5 40C29.67157 40 29 39.32843 29 38.5L29 22.5C29 21.67157 29.67157 21 30.5 21L30.5 21C31.32843 21 32 21.67157 32 22.5L32 38.5C32 39.32843 31.32843 40 30.5 40Z " fill="#ffffff" fill-opacity="1" transform="matrix(1,0,0,1,-21,-21)"></path></svg>