<svg id="SvgjsSvg1161" xmlns="http://www.w3.org/2000/svg" version="1.1" xmlns:xlink="http://www.w3.org/1999/xlink" xmlns:svgjs="http://svgjs.com/svgjs" width="25" height="7" viewBox="0 0 25 7"><title>Group 7</title><desc>Created with Avocode.</desc><defs id="SvgjsDefs1162"><clipPath id="SvgjsClipPath1165"><path id="SvgjsPath1164" d="M1265 5050.5C1265 5048.567 1266.567 5047 1268.5 5047L1268.5 5047C1270.433 5047 1272 5048.567 1272 5050.5L1272 5050.5C1272 5052.433 1270.433 5054 1268.5 5054L1268.5 5054C1266.567 5054 1265 5052.433 1265 5050.5Z " fill="#ffffff"></path></clipPath><clipPath id="SvgjsClipPath1168"><path id="SvgjsPath1167" d="M1274 5050.5C1274 5048.567 1275.567 5047 1277.5 5047L1277.5 5047C1279.433 5047 1281 5048.567 1281 5050.5L1281 5050.5C1281 5052.433 1279.433 5054 1277.5 5054L1277.5 5054C1275.567 5054 1274 5052.433 1274 5050.5Z " fill="#ffffff"></path></clipPath><clipPath id="SvgjsClipPath1171"><path id="SvgjsPath1170" d="M1283 5050.5C1283 5048.567 1284.567 5047 1286.5 5047L1286.5 5047C1288.433 5047 1290 5048.567 1290 5050.5L1290 5050.5C1290 5052.433 1288.433 5054 1286.5 5054L1286.5 5054C1284.567 5054 1283 5052.433 1283 5050.5Z " fill="#ffffff"></path></clipPath></defs><path id="SvgjsPath1163" d="M1265 5050.5C1265 5048.567 1266.567 5047 1268.5 5047L1268.5 5047C1270.433 5047 1272 5048.567 1272 5050.5L1272 5050.5C1272 5052.433 1270.433 5054 1268.5 5054L1268.5 5054C1266.567 5054 1265 5052.433 1265 5050.5Z " fill-opacity="0" fill="#ffffff" stroke-dasharray="0" stroke-linejoin="round" stroke-linecap="round" stroke-opacity="1" stroke="#bdbdcb" stroke-miterlimit="50" stroke-width="4" clip-path="url(&quot;#SvgjsClipPath1165&quot;)" transform="matrix(1,0,0,1,-1265,-5047)"></path><path id="SvgjsPath1166" d="M1274 5050.5C1274 5048.567 1275.567 5047 1277.5 5047L1277.5 5047C1279.433 5047 1281 5048.567 1281 5050.5L1281 5050.5C1281 5052.433 1279.433 5054 1277.5 5054L1277.5 5054C1275.567 5054 1274 5052.433 1274 5050.5Z " fill-opacity="0" fill="#ffffff" stroke-dasharray="0" stroke-linejoin="round" stroke-linecap="round" stroke-opacity="1" stroke="#bdbdcb" stroke-miterlimit="50" stroke-width="4" clip-path="url(&quot;#SvgjsClipPath1168&quot;)" transform="matrix(1,0,0,1,-1265,-5047)"></path><path id="SvgjsPath1169" d="M1283 5050.5C1283 5048.567 1284.567 5047 1286.5 5047L1286.5 5047C1288.433 5047 1290 5048.567 1290 5050.5L1290 5050.5C1290 5052.433 1288.433 5054 1286.5 5054L1286.5 5054C1284.567 5054 1283 5052.433 1283 5050.5Z " fill-opacity="0" fill="#ffffff" stroke-dasharray="0" stroke-linejoin="round" stroke-linecap="round" stroke-opacity="1" stroke="#bdbdcb" stroke-miterlimit="50" stroke-width="4" clip-path="url(&quot;#SvgjsClipPath1171&quot;)" transform="matrix(1,0,0,1,-1265,-5047)"></path></svg>