<svg id="SvgjsSvg1148" xmlns="http://www.w3.org/2000/svg" version="1.1" xmlns:xlink="http://www.w3.org/1999/xlink" xmlns:svgjs="http://svgjs.com/svgjs" width="15" height="19" viewBox="0 0 15 19"><title>Group 6</title><desc>Created with Avocode.</desc><defs id="SvgjsDefs1149"><clipPath id="SvgjsClipPath1152"><path id="SvgjsPath1151" d="M1220 5050.5C1220 5048.567 1221.567 5047 1223.5 5047L1223.5 5047C1225.433 5047 1227 5048.567 1227 5050.5L1227 5050.5C1227 5052.433 1225.433 5054 1223.5 5054L1223.5 5054C1221.567 5054 1220 5052.433 1220 5050.5Z " fill="#ffffff"></path></clipPath><clipPath id="SvgjsClipPath1155"><path id="SvgjsPath1154" d="M1228 5056.5C1228 5054.567 1229.567 5053 1231.5 5053L1231.5 5053C1233.433 5053 1235 5054.567 1235 5056.5L1235 5056.5C1235 5058.433 1233.433 5060 1231.5 5060L1231.5 5060C1229.567 5060 1228 5058.433 1228 5056.5Z " fill="#ffffff"></path></clipPath><clipPath id="SvgjsClipPath1158"><path id="SvgjsPath1157" d="M1228 5044.5C1228 5042.567 1229.567 5041 1231.5 5041L1231.5 5041C1233.433 5041 1235 5042.567 1235 5044.5L1235 5044.5C1235 5046.433 1233.433 5048 1231.5 5048L1231.5 5048C1229.567 5048 1228 5046.433 1228 5044.5Z " fill="#ffffff"></path></clipPath></defs><path id="SvgjsPath1150" d="M1220 5050.5C1220 5048.567 1221.567 5047 1223.5 5047L1223.5 5047C1225.433 5047 1227 5048.567 1227 5050.5L1227 5050.5C1227 5052.433 1225.433 5054 1223.5 5054L1223.5 5054C1221.567 5054 1220 5052.433 1220 5050.5Z " fill-opacity="0" fill="#ffffff" stroke-dasharray="0" stroke-linejoin="round" stroke-linecap="round" stroke-opacity="1" stroke="#bdbdcb" stroke-miterlimit="50" stroke-width="4" clip-path="url(&quot;#SvgjsClipPath1152&quot;)" transform="matrix(1,0,0,1,-1220,-5041)"></path><path id="SvgjsPath1153" d="M1228 5056.5C1228 5054.567 1229.567 5053 1231.5 5053L1231.5 5053C1233.433 5053 1235 5054.567 1235 5056.5L1235 5056.5C1235 5058.433 1233.433 5060 1231.5 5060L1231.5 5060C1229.567 5060 1228 5058.433 1228 5056.5Z " fill-opacity="0" fill="#ffffff" stroke-dasharray="0" stroke-linejoin="round" stroke-linecap="round" stroke-opacity="1" stroke="#bdbdcb" stroke-miterlimit="50" stroke-width="4" clip-path="url(&quot;#SvgjsClipPath1155&quot;)" transform="matrix(1,0,0,1,-1220,-5041)"></path><path id="SvgjsPath1156" d="M1228 5044.5C1228 5042.567 1229.567 5041 1231.5 5041L1231.5 5041C1233.433 5041 1235 5042.567 1235 5044.5L1235 5044.5C1235 5046.433 1233.433 5048 1231.5 5048L1231.5 5048C1229.567 5048 1228 5046.433 1228 5044.5Z " fill-opacity="0" fill="#ffffff" stroke-dasharray="0" stroke-linejoin="round" stroke-linecap="round" stroke-opacity="1" stroke="#bdbdcb" stroke-miterlimit="50" stroke-width="4" clip-path="url(&quot;#SvgjsClipPath1158&quot;)" transform="matrix(1,0,0,1,-1220,-5041)"></path><path id="SvgjsPath1159" d="M1226 5049L1230 5046 " fill-opacity="0" fill="#ffffff" stroke-dasharray="0" stroke-linejoin="miter" stroke-linecap="butt" stroke-opacity="1" stroke="#bdbdcb" stroke-miterlimit="50" stroke-width="2" transform="matrix(1,0,0,1,-1220,-5041)"></path><path id="SvgjsPath1160" d="M1226 5052L1230 5055 " fill-opacity="0" fill="#ffffff" stroke-dasharray="0" stroke-linejoin="miter" stroke-linecap="butt" stroke-opacity="1" stroke="#bdbdcb" stroke-miterlimit="50" stroke-width="2" transform="matrix(1,0,0,1,-1220,-5041)"></path></svg>