<svg id="SvgjsSvg1139" xmlns="http://www.w3.org/2000/svg" version="1.1" xmlns:xlink="http://www.w3.org/1999/xlink" xmlns:svgjs="http://svgjs.com/svgjs" width="21" height="21" viewBox="0 0 21 21"><title>Group 5</title><desc>Created with Avocode.</desc><defs id="SvgjsDefs1140"><clipPath id="SvgjsClipPath1143"><path id="SvgjsPath1142" d="M1169.66117 5046.61091C1168.2943300000002 5045.244070000001 1168.2943300000002 5043.028 1169.66117 5041.661160000001L1169.66117 5041.661160000001C1171.02801 5040.294320000001 1173.2440800000002 5040.294320000001 1174.61092 5041.661160000001L1174.61092 5041.661160000001C1175.97776 5043.028 1175.97776 5045.244070000001 1174.61092 5046.61091L1174.61092 5046.61091C1173.2440800000002 5047.97775 1171.02801 5047.97775 1169.66117 5046.61091Z " fill="#ffffff"></path></clipPath><clipPath id="SvgjsClipPath1146"><path id="SvgjsPath1145" d="M1182.38909 5059.33883C1181.02225 5057.97199 1181.02225 5055.75592 1182.38909 5054.38908L1182.38909 5054.38908C1183.7559299999998 5053.02224 1185.972 5053.02224 1187.33884 5054.38908L1187.33884 5054.38908C1188.7056799999998 5055.75592 1188.7056799999998 5057.97199 1187.33884 5059.33883L1187.33884 5059.33883C1185.972 5060.705669999999 1183.7559299999998 5060.705669999999 1182.38909 5059.33883Z " fill="#ffffff"></path></clipPath></defs><path id="SvgjsPath1141" d="M1169.66117 5046.61091C1168.2943300000002 5045.244070000001 1168.2943300000002 5043.028 1169.66117 5041.661160000001L1169.66117 5041.661160000001C1171.02801 5040.294320000001 1173.2440800000002 5040.294320000001 1174.61092 5041.661160000001L1174.61092 5041.661160000001C1175.97776 5043.028 1175.97776 5045.244070000001 1174.61092 5046.61091L1174.61092 5046.61091C1173.2440800000002 5047.97775 1171.02801 5047.97775 1169.66117 5046.61091Z " fill-opacity="0" fill="#ffffff" stroke-dasharray="0" stroke-linejoin="round" stroke-linecap="round" stroke-opacity="1" stroke="#bdbdcb" stroke-miterlimit="50" stroke-width="4" clip-path="url(&quot;#SvgjsClipPath1143&quot;)" transform="matrix(1,0,0,1,-1168,-5040)"></path><path id="SvgjsPath1144" d="M1182.38909 5059.33883C1181.02225 5057.97199 1181.02225 5055.75592 1182.38909 5054.38908L1182.38909 5054.38908C1183.7559299999998 5053.02224 1185.972 5053.02224 1187.33884 5054.38908L1187.33884 5054.38908C1188.7056799999998 5055.75592 1188.7056799999998 5057.97199 1187.33884 5059.33883L1187.33884 5059.33883C1185.972 5060.705669999999 1183.7559299999998 5060.705669999999 1182.38909 5059.33883Z " fill-opacity="0" fill="#ffffff" stroke-dasharray="0" stroke-linejoin="round" stroke-linecap="round" stroke-opacity="1" stroke="#bdbdcb" stroke-miterlimit="50" stroke-width="4" clip-path="url(&quot;#SvgjsClipPath1146&quot;)" transform="matrix(1,0,0,1,-1168,-5040)"></path><path id="SvgjsPath1147" d="M1174.05937 5046.18665L1183.0608399999999 5055.18812 " fill-opacity="0" fill="#ffffff" stroke-dasharray="0" stroke-linejoin="miter" stroke-linecap="butt" stroke-opacity="1" stroke="#bdbdcb" stroke-miterlimit="50" stroke-width="2" transform="matrix(1,0,0,1,-1168,-5040)"></path></svg>