<svg id="SvgjsSvg1015" xmlns="http://www.w3.org/2000/svg" version="1.1" xmlns:xlink="http://www.w3.org/1999/xlink" xmlns:svgjs="http://svgjs.com/svgjs" width="16" height="16" viewBox="0 0 16 16"><title>Rectangle</title><desc>Created with Avocode.</desc><defs id="SvgjsDefs1016"></defs><path id="SvgjsPath1017" d="M13 28C13 27.44772 13.44772 27 14 27L28 27C28.55228 27 29 27.44772 29 28L29 28C29 28.55228 28.55228 29 28 29L14 29C13.44772 29 13 28.55228 13 28Z " fill="#ffffff" fill-opacity="1" transform="matrix(1,0,0,1,-13,-13)"></path><path id="SvgjsPath1018" d="M13 14.5C13 13.67157 13.67157 13 14.5 13C15.32843 13 16 13.67157 16 14.5C16 15.32843 15.32843 16 14.5 16C13.67157 16 13 15.32843 13 14.5Z " fill="#ffffff" fill-opacity="1" transform="matrix(1,0,0,1,-13,-13)"></path><path id="SvgjsPath1019" d="M26 14.5C26 13.67157 26.67157 13 27.5 13C28.32843 13 29 13.67157 29 14.5C29 15.32843 28.32843 16 27.5 16C26.67157 16 26 15.32843 26 14.5Z " fill="#ffffff" fill-opacity="1" transform="matrix(1,0,0,1,-13,-13)"></path></svg>