<svg id="SvgjsSvg1010" xmlns="http://www.w3.org/2000/svg" version="1.1" xmlns:xlink="http://www.w3.org/1999/xlink" xmlns:svgjs="http://svgjs.com/svgjs" width="22" height="19" viewBox="0 0 22 19"><title>Oval 2</title><desc>Created with Avocode.</desc><defs id="SvgjsDefs1011"></defs><path id="SvgjsPath1012" d="M11.525 30.525C12.385 27.935 15.305 24.474999999999998 21.025 24.474999999999998C26.744999999999997 24.474999999999998 29.665 27.505 30.525 30.525 " fill-opacity="0" fill="#ffffff" stroke-dasharray="0" stroke-linejoin="round" stroke-linecap="round" stroke-opacity="1" stroke="#ffffff" stroke-miterlimit="50" stroke-width="2" transform="matrix(1,0,0,1,-9.999999999999998,-13)"></path><path id="SvgjsPath1013" d="M13 14.5C13 13.67157 13.67157 13 14.5 13C15.32843 13 16 13.67157 16 14.5C16 15.32843 15.32843 16 14.5 16C13.67157 16 13 15.32843 13 14.5Z " fill="#ffffff" fill-opacity="1" transform="matrix(1,0,0,1,-9.999999999999998,-13)"></path><path id="SvgjsPath1014" d="M26 14.5C26 13.67157 26.67157 13 27.5 13C28.32843 13 29 13.67157 29 14.5C29 15.32843 28.32843 16 27.5 16C26.67157 16 26 15.32843 26 14.5Z " fill="#ffffff" fill-opacity="1" transform="matrix(1,0,0,1,-9.999999999999998,-13)"></path></svg>