<svg id="SvgjsSvg1000" xmlns="http://www.w3.org/2000/svg" version="1.1" xmlns:xlink="http://www.w3.org/1999/xlink" xmlns:svgjs="http://svgjs.com/svgjs" width="22" height="21" viewBox="0 0 22 21"><title>Oval 4</title><desc>Created with Avocode.</desc><defs id="SvgjsDefs1001"></defs><path id="SvgjsPath1007" d="M12 14.5C12 13.67157 12.67157 13 13.5 13C14.32843 13 15 13.67157 15 14.5C15 15.32843 14.32843 16 13.5 16C12.67157 16 12 15.32843 12 14.5Z " fill="#ffffff" fill-opacity="1" transform="matrix(1,0,0,1,-8.999999999999998,-13)"></path><path id="SvgjsPath1008" d="M26 14.5C26 13.67157 26.67157 13 27.5 13C28.32843 13 29 13.67157 29 14.5C29 15.32843 28.32843 16 27.5 16C26.67157 16 26 15.32843 26 14.5Z " fill="#ffffff" fill-opacity="1" transform="matrix(1,0,0,1,-8.999999999999998,-13)"></path><path id="SvgjsPath1009" d="M10.525 26.475C11.385 29.065 14.305 32.525 20.025 32.525C25.744999999999997 32.525 28.665 29.494999999999997 29.525 26.474999999999998 " fill-opacity="0" fill="#ffffff" stroke-dasharray="0" stroke-linejoin="round" stroke-linecap="round" stroke-opacity="1" stroke="#ffffff" stroke-miterlimit="50" stroke-width="2" transform="matrix(1,0,0,1,-8.999999999999998,-13)"></path></svg>