<svg id="SvgjsSvg1048" xmlns="http://www.w3.org/2000/svg" version="1.1" xmlns:xlink="http://www.w3.org/1999/xlink" xmlns:svgjs="http://svgjs.com/svgjs" width="26" height="26" viewBox="0 0 26 26"><title>icon</title><desc>Created with Avocode.</desc><defs id="SvgjsDefs1049"></defs><path id="SvgjsPath1050" d="M613 3169C613 3168.44772 613.44772 3168 614 3168C614.55228 3168 615 3168.44772 615 3169L615 3172L618 3172C618.55228 3172 619 3172.44772 619 3173C619 3173.55228 618.55228 3174 618 3174L615 3174L615 3177C615 3177.55228 614.55228 3178 614 3178C613.44772 3178 613 3177.55228 613 3177L613 3174L610 3174C609.44772 3174 609 3173.55228 609 3173C609 3172.44772 609.44772 3172 610 3172L613 3172ZM617.45 3162.7C617.46 3163.41 617.1800000000001 3164.1699999999996 616.59 3164.73L616.07 3165.2400000000002C615.6400000000001 3165.67 614.9300000000001 3165.67 614.5 3165.2200000000003C614.07 3164.78 614.08 3164.0800000000004 614.53 3163.65L615.05 3163.14C615.18 3162.99 615.2199999999999 3162.8599999999997 615.24 3162.7C615.24 3162.5499999999997 615.1800000000001 3162.3799999999997 615.08 3162.2799999999997C614.99 3162.16 614.87 3162.0899999999997 614.6800000000001 3162.06L609.1200000000001 3161.25C608.7600000000001 3161.19 608.4500000000002 3160.97 608.2900000000001 3160.64L605.82 3155.5899999999997C605.6800000000001 3155.3299999999995 605.48 3155.2299999999996 605.24 3155.2299999999996C604.99 3155.2299999999996 604.79 3155.3199999999997 604.66 3155.5699999999997L602.17 3160.64C602.01 3160.97 601.6999999999999 3161.19 601.3399999999999 3161.25L595.79 3162.06C595.5899999999999 3162.09 595.4699999999999 3162.16 595.37 3162.2799999999997C595.28 3162.3799999999997 595.22 3162.5499999999997 595.22 3162.7C595.24 3162.8599999999997 595.27 3162.99 595.4200000000001 3163.14L599.45 3167.08C599.71 3167.33 599.83 3167.71 599.7700000000001 3168.06L598.82 3173.62L598.8100000000001 3173.7599999999998C598.8100000000001 3173.9199999999996 598.87 3174.0699999999997 599.0000000000001 3174.1899999999996C599.1200000000001 3174.3099999999995 599.2800000000001 3174.3799999999997 599.4300000000001 3174.3799999999997L599.74 3174.2899999999995L604.42 3171.8299999999995C604.9699999999999 3171.5399999999995 605.64 3171.7499999999995 605.92 3172.2999999999993C606.2199999999999 3172.8399999999992 605.99 3173.519999999999 605.4599999999999 3173.7999999999993L600.78 3176.269999999999C600.35 3176.489999999999 599.89 3176.609999999999 599.43 3176.609999999999C598.67 3176.599999999999 597.9599999999999 3176.2999999999993 597.4399999999999 3175.7999999999993C596.93 3175.289999999999 596.5899999999999 3174.5599999999995 596.5899999999999 3173.7599999999993C596.5899999999999 3173.5799999999995 596.5999999999999 3173.419999999999 596.6299999999999 3173.249999999999L597.4699999999999 3168.269999999999L593.8699999999999 3164.729999999999C593.2799999999999 3164.179999999999 592.9999999999999 3163.409999999999 592.9999999999999 3162.699999999999C592.9999999999999 3162.029999999999 593.2399999999999 3161.389999999999 593.6499999999999 3160.869999999999C594.0799999999998 3160.349999999999 594.7199999999999 3159.939999999999 595.4599999999998 3159.839999999999L600.4399999999998 3159.1299999999987L602.6699999999998 3154.589999999999C603.1899999999998 3153.549999999999 604.2299999999998 3152.989999999999 605.2399999999999 3152.9999999999986C606.2599999999999 3152.9999999999986 607.2799999999999 3153.549999999999 607.7999999999998 3154.589999999999L610.0199999999999 3159.1299999999987L614.9999999999999 3159.839999999999C615.7399999999999 3159.9399999999987 616.3799999999999 3160.349999999999 616.7899999999998 3160.869999999999C617.2199999999998 3161.389999999999 617.4499999999998 3162.029999999999 617.4499999999998 3162.699999999999Z " fill="#ffffff" fill-opacity="1" transform="matrix(1,0,0,1,-593,-3152)"></path></svg>