<svg xmlns="http://www.w3.org/2000/svg" viewBox="0 0 602.24 483.29"><defs><style>.cls-1,.cls-34,.cls-44,.cls-5{fill:none;}.cls-1,.cls-10,.cls-12,.cls-15,.cls-16,.cls-17,.cls-19,.cls-2,.cls-20,.cls-21,.cls-22,.cls-23,.cls-24,.cls-25,.cls-28,.cls-29,.cls-3,.cls-30,.cls-31,.cls-32,.cls-33,.cls-34,.cls-35,.cls-36,.cls-37,.cls-38,.cls-40,.cls-41,.cls-44,.cls-5,.cls-6,.cls-7,.cls-8,.cls-9{stroke:#43456d;}.cls-1,.cls-10,.cls-12,.cls-15,.cls-16,.cls-17,.cls-2,.cls-20,.cls-21,.cls-23,.cls-27,.cls-28,.cls-29,.cls-3,.cls-30,.cls-31,.cls-32,.cls-33,.cls-34,.cls-35,.cls-36,.cls-37,.cls-38,.cls-41,.cls-44,.cls-5,.cls-6,.cls-7,.cls-8{stroke-linecap:round;stroke-linejoin:round;}.cls-1,.cls-20,.cls-22,.cls-24,.cls-25,.cls-28,.cls-29,.cls-30,.cls-31,.cls-35,.cls-37,.cls-41,.cls-6,.cls-8{stroke-width:3.54px;}.cls-2,.cls-4{fill:#4c4c93;}.cls-10,.cls-12,.cls-15,.cls-16,.cls-17,.cls-19,.cls-2,.cls-21,.cls-23,.cls-3,.cls-36,.cls-38,.cls-40,.cls-5,.cls-7,.cls-9{stroke-width:4px;}.cls-28,.cls-3{fill:#585899;}.cls-6,.cls-7{fill:#e2d3bf;}.cls-25,.cls-40,.cls-8{fill:#fff;}.cls-23,.cls-24,.cls-30,.cls-9{fill:#facbb2;}.cls-19,.cls-22,.cls-24,.cls-25,.cls-40,.cls-9{stroke-miterlimit:10;}.cls-10,.cls-31{fill:#d54d1d;}.cls-11,.cls-26,.cls-42{fill:#43456d;}.cls-11{opacity:0.3;}.cls-12,.cls-13,.cls-32,.cls-37{fill:#706ac4;}.cls-14,.cls-15,.cls-41{fill:#a57b74;}.cls-16,.cls-39{fill:#b57469;}.cls-17,.cls-18,.cls-19,.cls-29{fill:#e889c2;}.cls-20{fill:#cc6eaa;}.cls-21{fill:#af6858;}.cls-22{fill:#ac97ef;}.cls-27{fill:#f7ae8c;stroke:#f7ae8c;}.cls-27,.cls-34{stroke-width:2.66px;}.cls-32{stroke-width:3.44px;}.cls-33,.cls-35,.cls-38{fill:#83d2f4;}.cls-33{stroke-width:3.46px;}.cls-36{fill:#e28b69;}.cls-42{opacity:0.33;}.cls-43{opacity:0.5;}.cls-44{stroke-width:4.01px;}</style></defs><title>Asset 2</title><g id="Layer_2" data-name="Layer 2"><g id="pink"><rect class="cls-1" x="72.88" y="77.38" width="404.02" height="404.02"/><path class="cls-2" d="M41,77.29v32h.92a39,39,0,0,0,77.88,0H120v-32Z"/><path class="cls-3" d="M120,77.29v32h-.12a39,39,0,0,0,77.88,0H198v-32Z"/><path class="cls-2" d="M198,77.29v32h-.15a39,39,0,0,0,77.88,0H276v-32Z"/><path class="cls-3" d="M276,77.29v32h-.18a39,39,0,0,0,77.88,0h.3v-32Z"/><path class="cls-2" d="M354,77.29v32h-.21a39,39,0,0,0,77.88,0H432v-32Z"/><path class="cls-3" d="M432,77.29v32h-.24a39,39,0,0,0,77.88,0H510v-32Z"/><polygon class="cls-4" points="41.87 77.29 69.59 2.29 477.05 2.29 509.68 77.29 41.87 77.29"/><polygon class="cls-3" points="139.33 2.29 211.1 2.29 197.81 77.29 119.84 77.29 139.33 2.29"/><polygon class="cls-3" points="276 2.29 276 77.29 353.74 77.29 335.14 2.29 276 2.29"/><polygon class="cls-3" points="476.01 2.91 409.56 2 430.83 77.29 509.68 77.29 476.01 2.91"/><polygon class="cls-5" points="41.87 77.29 69.59 2.29 477.05 2.29 509.68 77.29 41.87 77.29"/><line class="cls-6" x1="139.33" y1="2.07" x2="119.84" y2="77.38"/><line class="cls-6" x1="211.1" y1="2.07" x2="197.81" y2="77.38"/><line class="cls-7" x1="276" y1="2.29" x2="276" y2="77.29"/><line class="cls-6" x1="335.69" y1="4.84" x2="353.74" y2="77.38"/><line class="cls-6" x1="430.83" y1="77.38" x2="410.53" y2="2.07"/><rect class="cls-8" x="169.45" y="216.49" width="42.53" height="56.7"/><path class="cls-9" d="M141.1,333.29H134c-6.2,0-11,5.47-11,12.56v24.37a5.94,5.94,0,0,0,6,5.76,5.86,5.86,0,0,0,5.85-5.76,5.6,5.6,0,1,0,11.19,0V366.4a9.54,9.54,0,0,0,5-8.15V343.18A10,10,0,0,0,141.1,333.29Z"/><line class="cls-10" x1="135" y1="372.29" x2="135" y2="356.29"/><rect class="cls-11" x="126.04" y="334.32" width="19.49" height="5.32"/><polyline class="cls-12" points="172 310.29 172 420.29 145 420.29 145 273.29 236 273.29 236 420.29 209 420.29 209 310.29"/><polygon class="cls-13" points="162.37 303.29 174.77 311.27 190.72 312.17 206.67 310.38 219.96 303.29 162.37 303.29"/><path class="cls-6" d="M190.72,313.06c-14.18,0-21.26-3.54-21.26-3.54"/><path class="cls-6" d="M190.72,313.06c14.18,0,21.26-3.54,21.26-3.54"/><path class="cls-14" d="M124,482.29v-6.2l4.56-8,8-5.32,20.64-.89L177,472.54v9.75Z"/><path class="cls-15" d="M142,461.91v-39a1.78,1.78,0,0,1,1.77-1.77h31a1.78,1.78,0,0,1,1.77,1.77v57.59"/><path class="cls-5" d="M155,462.29H142.87c-10.23,0-18.61,7.3-18.61,17.53l-.14.09"/><line class="cls-16" x1="142" y1="434.29" x2="150" y2="434.29"/><line class="cls-16" x1="142" y1="443.29" x2="150" y2="443.29"/><line class="cls-16" x1="142" y1="450.29" x2="150" y2="450.29"/><path class="cls-14" d="M257,482.29v-6.2l-4.35-8-7.93-5.32-20.3-.89L205,472.54v9.75Z"/><path class="cls-15" d="M239.45,461.91v-39a1.78,1.78,0,0,0-1.77-1.77h-31a1.78,1.78,0,0,0-1.77,1.77v57.59"/><path class="cls-5" d="M226,462.29h12.56c10.23,0,18.61,7.3,18.61,17.53l-.08.09"/><line class="cls-16" x1="239" y1="434.29" x2="232" y2="434.29"/><line class="cls-16" x1="239" y1="443.29" x2="232" y2="443.29"/><line class="cls-16" x1="239" y1="450.29" x2="232" y2="450.29"/><rect class="cls-11" x="145.53" y="414.95" width="26.58" height="5.32"/><rect class="cls-11" x="209.33" y="414.95" width="26.58" height="5.32"/><path class="cls-11" d="M217.14,288.29a3.76,3.76,0,0,0,.16-1.35c0-3.18-2.18-5.77-5.36-5.77-.46,0-.93.05-.93.15v-63H171v63c0-.1-.76-.16-1.22-.16a5.73,5.73,0,0,0-5.7,5.78,3.42,3.42,0,0,0,.22,1.35H147v5h22v-.63s.52,0,.67,0a5.94,5.94,0,0,0,5.87-5.86c0-.15.1-.54.09-.54H176v-64h30v66h-.06a5.37,5.37,0,0,0,5.66,4.41,4,4,0,0,0,1.39-.18v.77h21v-5Z"/><path class="cls-17" d="M145,284.29v49H124.27c-3.54,0-4.27-.73-4.27-5.16V244.84c0-18.52,14.8-33.88,33.32-33.88"/><polygon class="cls-18" points="154.39 211.29 169 211.29 169 273.19 148.85 274.07 149.85 215.66 154.39 211.29"/><path class="cls-19" d="M319.19,170.29H303.24c-3.54,0-4.24.13-4.24,5.44v4.77c0,20.92-14.36,31.79-32.63,31.79H212v71.53a2.49,2.49,0,0,0,2.64,2.47h19.49c1.46,0,1.87-1,1.87-2.47V238.29h38.89c27.89,0,50.11-23.15,50.11-51V175.73C325,170.41,324.51,170.29,319.19,170.29Z"/><rect class="cls-11" x="300.58" y="179.27" width="23.92" height="3.54"/><rect class="cls-11" x="121.61" y="322.81" width="23.92" height="3.54"/><path class="cls-17" d="M169.45,270.53v13.29a2.67,2.67,0,0,1-2.66,2.66H147.3c-1.46,0-1.77-1.2-1.77-2.66v-50.5"/><line class="cls-10" x1="236" y1="233.29" x2="236" y2="273.29"/><path class="cls-20" d="M169.45,206.74h-8.86a6.22,6.22,0,0,0-6.2,6.2v21.26c0,3.41,2,5.56,4.43,8l10.63,10.63Z"/><line class="cls-21" x1="169" y1="273.29" x2="169" y2="252.29"/><path class="cls-20" d="M212,206.74h8.86a6.22,6.22,0,0,1,6.2,6.2v21.26c0,3.41-2,5.56-4.43,8L212,252.81Z"/><line class="cls-21" x1="212" y1="273.29" x2="212" y2="252.29"/><path class="cls-11" d="M227,217.48v16.73c0,3.41-1.87,5.56-4.28,8S216,248.7,214,251v10.63s7.06-7.09,10.6-10.63c2.41-2.41,4.4-4.56,4.4-8V221.8A6.84,6.84,0,0,0,227,217.48Z"/><path class="cls-11" d="M157.84,242.18c-2.41-2.41-3.84-4.56-3.84-8V217.74a3.8,3.8,0,0,0-1,3.17v21.26c0,3.41,1.49,5.56,3.9,8,3.54,3.54,10.1,10.63,10.1,10.63v-8.86C165,249.92,160.63,245,157.84,242.18Z"/><rect class="cls-22" x="169.45" y="201.42" width="42.53" height="15.06"/><rect class="cls-22" x="191.61" y="216.49" width="14.18" height="40.76"/><line class="cls-10" x1="191" y1="264.29" x2="191" y2="257.29"/><line class="cls-10" x1="206" y1="264.29" x2="206" y2="257.29"/><line class="cls-10" x1="199" y1="264.29" x2="199" y2="257.29"/><path class="cls-11" d="M169,204.65a56.44,56.44,0,0,0,22.52,4.64h-.15A54.08,54.08,0,0,0,212,205.41v-4.12H169Z"/><rect class="cls-11" x="191.61" y="216.49" width="15.06" height="5.32"/><path class="cls-23" d="M334,126.56a6.06,6.06,0,0,0-6.08-5.76,5.91,5.91,0,0,0-5.92,5.76,5.82,5.82,0,0,0-11.64,0,5.69,5.69,0,1,0-11.37,0v7.09a10.26,10.26,0,0,0-2.73-.45c-3.17,0-6.27,2.59-6.27,5.76v17.72a6.23,6.23,0,0,0,4,5.36,10.93,10.93,0,0,0,6.6,2.25H303v6h20v-6h.62c5.38,0,10.38-4.44,10.38-9.82V145.6c0-.25,0-.47,0-.7a5.74,5.74,0,0,0,0-.63Z"/><line class="cls-10" x1="299" y1="133.29" x2="299" y2="145.29"/><line class="cls-10" x1="311" y1="126.29" x2="311" y2="140.29"/><line class="cls-10" x1="322" y1="126.29" x2="322" y2="140.29"/><rect class="cls-11" x="303.24" y="164.21" width="20.38" height="5.32"/><path class="cls-15" d="M257.29,149.59c-3.54,0,6.59-56.48,6.59-65.34s-1.28-17.9-13.1-20.71a27.7,27.7,0,0,0,1-26.3s-3.5,2.35-14.13,3.24-19.47-3.7-25.67-6.35-20.37-10.71-30.11-10.71-17.71,1.73-26.57,7.94S137.85,49,131.35,60.57c-15.06,2.66-14.17,20.1-13.29,26.3s5.32,58.42,5.32,60.42H137V111.94c0-5.32,3.16-9.75,9.36-9.75s17.31,6.2,43,6.2c33.34,0,40.94-5.32,48-5.32s7.61,7.09,7.61,10.63v35.44S258.17,149.59,257.29,149.59Z"/><circle class="cls-24" cx="136.67" cy="149.15" r="15.95"/><circle class="cls-24" cx="245.65" cy="149.15" r="15.95"/><path class="cls-24" d="M191.16,204.08h0a54.64,54.64,0,0,1-54.49-54.47V114.93c0-30,24.52-11.61,54.49-11.61h0c30,0,54.49-18.35,54.49,11.61v34.67A54.64,54.64,0,0,1,191.16,204.08Z"/><path class="cls-25" d="M209.33,161.55c0,9.09-7.93,16.83-17.72,16.83S173,170.64,173,161.55c0-1.34.89-1.77,2.66-1.77h31C208.44,159.78,209.33,160.19,209.33,161.55Z"/><polygon class="cls-26" points="174.77 170.29 207.55 170.29 201.35 176.77 190.72 179.79 180.97 177.03 174.77 170.29"/><circle class="cls-26" cx="163.7" cy="139.85" r="3.99"/><circle class="cls-26" cx="218.63" cy="139.85" r="3.99"/><rect class="cls-26" x="145.98" y="116.06" width="29.03" height="7.52" rx="3.76" ry="3.76" transform="translate(-19.79 32.58) rotate(-10.92)"/><rect class="cls-26" x="207.33" y="116.06" width="29.03" height="7.35" rx="3.68" ry="3.68" transform="translate(416.99 279.33) rotate(-169.08)"/><path class="cls-27" d="M191.61,186.36c-5.06,0-7.09,2.66-7.09,2.66"/><path class="cls-27" d="M191.61,186.36c5.06,0,7.09,2.66,7.09,2.66"/><path class="cls-11" d="M191,103.29H191c-30,0-54-18.31-54,11.65v5.32c0-30,24.16-12,54.13-12h-.19c30,0,54.06-18,54.06,12v-5.32C245,85,220.93,103.29,191,103.29Z"/><path class="cls-11" d="M245,133.29v16.32c0,5.06-.06,9.68-1.37,14.68h5.32A56.58,56.58,0,0,0,251,149.61V133.29Z"/><path class="cls-11" d="M137,133.29v16.32a55.86,55.86,0,0,0,1.44,14.68h-5.32c-1.3-5-1.13-9.62-1.13-14.68V133.29Z"/><line class="cls-10" x1="86" y1="481.29" x2="295" y2="481.29"/><line class="cls-3" x1="2" y1="481.29" x2="138" y2="481.29"/><rect class="cls-28" x="41.87" y="309.52" width="466.04" height="171.88"/><path class="cls-29" d="M584.13,212.94s-68.25-12-142.67-12c-75.31,0-146.19,12-146.19,12L282,218.26l13.29,210.87s102.78-5.32,146.19-5.32c47,0,142.65,5.32,142.65,5.32l12.4-210Z"/><path class="cls-11" d="M325.3,221.17l-.05-.13c-.4-.83-2.45-5.06-3.83-6.57-9.53-10.4-20.21-7.71-28.45-4.21-6.1,2.59-17.17,11.67-12.47,23.19,2.11,5.18,6.25,15.77,6.29,15.87a7.53,7.53,0,0,0,14.14-.26,7.51,7.51,0,0,0,10.51-3.55q.13-.3.24-.6a7.53,7.53,0,0,0,10.66-9.31l-1.76-4.56.42-.15A7.54,7.54,0,0,0,325.3,221.17Z"/><path class="cls-30" d="M317.45,213c1.27,1.39,3.54,6.14,3.54,6.14a5.78,5.78,0,0,1-3.3,7.45,5.7,5.7,0,0,1-2.23.38L318,233.6a5.76,5.76,0,1,1-10.75,4.15,5.76,5.76,0,1,1-10.75,4.15A5.76,5.76,0,0,1,285.78,246s-4.16-10.65-6.3-15.91C274.92,219,286.93,211,291,209.25,299.16,205.78,308.82,203.59,317.45,213Z"/><line class="cls-31" x1="315.62" y1="227.4" x2="313.65" y2="222.66"/><line class="cls-31" x1="307.11" y1="237.33" x2="304.5" y2="230.94"/><line class="cls-31" x1="296.37" y1="241.48" x2="293.75" y2="235.09"/><path class="cls-11" d="M553.63,221.17l.05-.13c.4-.83,2.45-5.06,3.83-6.57,9.53-10.4,20.21-7.71,28.45-4.21,6.1,2.59,17.17,11.67,12.47,23.19-2.11,5.18-6.25,15.77-6.29,15.87a7.53,7.53,0,0,1-14.14-.26,7.51,7.51,0,0,1-10.51-3.55q-.13-.3-.24-.6a7.53,7.53,0,0,1-10.66-9.31l1.76-4.56-.42-.15A7.54,7.54,0,0,1,553.63,221.17Z"/><path class="cls-30" d="M561.48,213c-1.27,1.39-3.54,6.14-3.54,6.14a5.78,5.78,0,0,0,3.3,7.45,5.7,5.7,0,0,0,2.23.38l-2.55,6.62a5.76,5.76,0,1,0,10.75,4.15,5.76,5.76,0,0,0,10.75,4.15A5.76,5.76,0,0,0,593.15,246s4.16-10.65,6.3-15.91C604,219,592,211,587.93,209.25,579.77,205.78,570.11,203.59,561.48,213Z"/><line class="cls-31" x1="563.3" y1="227.4" x2="565.28" y2="222.66"/><line class="cls-31" x1="571.82" y1="237.33" x2="574.43" y2="230.94"/><line class="cls-31" x1="582.56" y1="241.48" x2="585.18" y2="235.09"/><rect class="cls-11" x="324" y="339.29" width="41" height="68" rx="8.81" ry="8.81"/><rect class="cls-32" x="326.28" y="336.98" width="38.1" height="64.68" rx="8" ry="8"/><rect class="cls-33" x="332.48" y="343.18" width="25.69" height="42.53" rx="2" ry="2"/><circle class="cls-34" cx="344.88" cy="393.69" r="2.66"/><path class="cls-11" d="M552.21,370.29c6.84,0,11.79-5.2,11.79-12v-5.32c0-6.84-5-11.64-11.79-11.64H550v-1.65c0-1-.52-1.77-1.5-1.77s-1.5.79-1.5,1.77v.89c-8,0-8,6.59-8,12.4v5.32c0,5.81,0,12.4,8,12.4v3.54c-8,0-8,6.59-8,12.4v5.32c0,5.56,0,11.81,7,12.35v.94a2,2,0,0,0,4,0v-.92h2.21c6.84,0,11.79-5.53,11.79-12.37V386.6c0-6.84-5-12.31-11.79-12.31H550v-4Z"/><path class="cls-35" d="M552.21,399h-5.32c-5.32,0-5.32-4.78-5.32-10.63v-5.32c0-5.85,0-10.63,5.32-10.63h5.32a10.66,10.66,0,0,1,10.63,10.63v5.32A10.66,10.66,0,0,1,552.21,399Z"/><path class="cls-35" d="M552.21,365.33h-5.32c-5.32,0-5.32-4.78-5.32-10.63v-5.32c0-5.85,0-10.63,5.32-10.63h5.32a10.66,10.66,0,0,1,10.63,10.63v5.32A10.66,10.66,0,0,1,552.21,365.33Z"/><line class="cls-36" x1="549" y1="365.29" x2="549" y2="372.29"/><line class="cls-36" x1="548" y1="401.29" x2="548" y2="398.29"/><line class="cls-36" x1="549" y1="339.29" x2="549" y2="336.29"/><path class="cls-11" d="M367,273.29h-8.19c-1-1-2.85-5.47-3.85-6.63h0c-1-2.45-3.09-3.38-7.1-3.38H335.75c-4,0-5.69.44-6.9,2.9-.58,1.16-3,6.1-4,7.1h-7.38c-3.88,0-6.42,4-6.42,7.88v25.69c0,3.88,2.54,7.43,6.42,7.43h14a23,23,0,0,0,21.66,0h14c3.88,0,7-3.55,7-7.43V281.16C374,277.28,370.91,273.29,367,273.29Z"/><rect class="cls-32" x="312.1" y="272.3" width="60.25" height="36.33" rx="6" ry="6"/><path class="cls-12" d="M353.21,264.23c-.76-1.53-1.52-1.94-5.32-1.94H335.75c-3.8,0-4.56.41-5.32,1.94s-4.56,8.06-4.56,8.06h31.9S354,265.76,353.21,264.23Z"/><circle class="cls-37" cx="342.23" cy="290.02" r="21.26"/><circle class="cls-33" cx="342.23" cy="290.02" r="14.18"/><path class="cls-11" d="M563.82,280.29H563V267.87c0-6.35-5.65-11.52-12-11.52s-12,5.17-12,11.52v6.41h-.64c-3.16,0-5.78,2-6.29,6H519.33a19.53,19.53,0,0,0,0,39.06,18.68,18.68,0,0,0,16.51-9.06h11.47a18.75,18.75,0,0,0,16.51,9.1,19.55,19.55,0,0,0,0-39.1ZM543,267.87c0-4.32,4.18-8,8.5-8s8.5,3.65,8.5,8v12.41h-9.47c-.51-4-3.13-6-6.29-6H543Z"/><rect class="cls-37" x="533.74" y="273.19" width="15.11" height="9.23" rx="4.62" ry="4.62"/><path class="cls-12" d="M563.82,278.29H519.33a17.8,17.8,0,0,0-17.63,17.83c0,9.74,7.89,18,17.63,18a18.32,18.32,0,0,0,15.5-8.84h13.48a18.41,18.41,0,0,0,15.5,8.95,18,18,0,0,0,0-35.95Z"/><circle class="cls-35" cx="555.75" cy="296.23" r="2.66"/><circle class="cls-35" cx="571.7" cy="296.23" r="2.66"/><circle class="cls-35" cx="563.73" cy="289.14" r="2.66"/><circle class="cls-35" cx="563.73" cy="303.31" r="2.66"/><path class="cls-1" d="M541.58,273.19v-8.86a9.75,9.75,0,0,1,19.49,0v12.4"/><path class="cls-38" d="M525.63,293.29H522v-4.15a1.78,1.78,0,0,0-1.69-1.85h-3.54a1.84,1.84,0,0,0-1.77,1.85v4.15h-3.55c-1,0-1.45.19-1.45,1.17V298c0,1,.48,1.29,1.45,1.29H515v4a2,2,0,0,0,1.77,2h3.54a1.89,1.89,0,0,0,1.69-2v-4h3.63c1,0,1.37-.31,1.37-1.29v-3.54C527,293.48,526.6,293.29,525.63,293.29Z"/><path class="cls-11" d="M521,359.15v-5.34a2.39,2.39,0,0,0-2.46-2.53h-8.86a2.57,2.57,0,0,0-2.68,2.53v5.34a4.85,4.85,0,0,0-2,3.52v21.26a4.59,4.59,0,0,0,4.68,4.35h8.86a4.39,4.39,0,0,0,4.46-4.35V362.68A4.85,4.85,0,0,0,521,359.15Z"/><rect class="cls-37" x="507.02" y="356.47" width="14.18" height="26.58" rx="3" ry="3"/><rect class="cls-35" x="508.79" y="349.39" width="10.63" height="7.97" rx="1" ry="1"/><path class="cls-30" d="M317.45,212.13c1.27,1.39,3.54,6.14,3.54,6.14a5.78,5.78,0,0,1-3.3,7.45,5.7,5.7,0,0,1-2.23.38l2.55,6.62a5.76,5.76,0,1,1-10.75,4.15A5.76,5.76,0,1,1,296.53,241a5.76,5.76,0,1,1-10.75,4.15s-4.16-10.65-6.3-15.91c-4.55-11.16,7.45-19.15,11.53-20.89C299.16,204.89,308.82,202.71,317.45,212.13Z"/><line class="cls-31" x1="315.62" y1="226.51" x2="313.65" y2="221.77"/><line class="cls-31" x1="307.11" y1="236.44" x2="304.5" y2="230.05"/><line class="cls-31" x1="296.37" y1="240.59" x2="293.75" y2="234.2"/><polyline class="cls-12" points="423 310.29 423 448.29 396 448.29 396 273.29 487 273.29 487 448.29 460 448.29 460 310.29"/><polygon class="cls-13" points="413.11 303.29 425.51 311.27 441.46 312.17 457.41 310.38 470.7 303.29 413.11 303.29"/><path class="cls-37" d="M441.46,313.06c-14.18,0-21.26-3.54-21.26-3.54"/><path class="cls-37" d="M441.46,313.06c14.18,0,21.26-3.54,21.26-3.54"/><rect class="cls-11" x="398.04" y="288.25" width="86.83" height="4.43"/><path class="cls-39" d="M375,482.29v-6.2l4.43-8,8-5.32,20.24-.89L427,472.54v9.75Z"/><path class="cls-15" d="M374.87,479.51l.07.25c0-10.23,8.44-17.47,18.68-17.47h25.69c5.32,0,7.69,1.39,7.69,6.71v11.29"/><line class="cls-16" x1="403" y1="462.29" x2="403" y2="470.29"/><line class="cls-16" x1="394" y1="462.29" x2="394" y2="470.29"/><rect class="cls-30" x="399.82" y="448.62" width="19.49" height="13.29"/><rect class="cls-11" x="399.82" y="448.62" width="19.49" height="5.32"/><path class="cls-39" d="M507,482.29v-6.2l-4.42-8-8-5.32-20.25-.89L455,472.54v9.75Z"/><path class="cls-15" d="M507.15,479.51l-.06.25c0-10.23-8.44-17.47-18.67-17.47H462.72c-5.32,0-7.72,1.39-7.72,6.71v11.29"/><line class="cls-16" x1="480" y1="462.29" x2="480" y2="470.29"/><line class="cls-16" x1="488" y1="462.29" x2="488" y2="470.29"/><rect class="cls-30" x="462.72" y="448.62" width="19.49" height="13.29" transform="translate(944.94 910.53) rotate(-180)"/><rect class="cls-11" x="462.72" y="448.62" width="19.49" height="5.32" transform="translate(944.94 902.55) rotate(-180)"/><line id="line" class="cls-10" x1="336" y1="481.29" x2="546" y2="481.29"/><rect class="cls-24" x="421.08" y="198.76" width="41.64" height="34.55"/><path class="cls-11" d="M420,204.65a55.67,55.67,0,0,0,22.36,4.64h-.1A54.66,54.66,0,0,0,463,205.41v-4.12H420Z"/><path class="cls-40" d="M514.11,212.29H462.72c0,3-2.38,16.83-21.26,16.83s-20.38-13.83-20.38-16.83H366v26h30v48h91v-48h29v-26Z"/><line class="cls-10" x1="487" y1="272.29" x2="487" y2="233.29"/><line class="cls-10" x1="396" y1="233.29" x2="396" y2="273.29"/><line class="cls-10" x1="516" y1="233.29" x2="516" y2="243.29"/><rect class="cls-11" x="367.92" y="213.83" width="3.54" height="22.15"/><rect class="cls-11" x="511.45" y="213.83" width="3.54" height="22.15"/><line class="cls-10" x1="366" y1="233.29" x2="366" y2="243.29"/><g id="face"><path class="cls-41" d="M508.32,149.58h0C508.42,149.59,508.4,149.59,508.32,149.58Z"/><path class="cls-15" d="M514.18,76.29H368.66a41.38,41.38,0,0,0,.15,10.48c.89,6.2,5.32,58.52,5.32,60.52H388v-15c0-5.32,3-30.12,9.23-30.12s17.24,6.2,42.94,6.2c33.34,0,41.24-5.32,48.32-5.32s7.05,27.47,7.05,31,.87,15.06.87,15.06,11,.38,11.92.44c-3.46-.31,6.45-56.6,6.45-65.44A46.49,46.49,0,0,0,514.18,76.29Z"/><circle class="cls-24" cx="387.41" cy="149.15" r="15.95"/><circle class="cls-24" cx="496.39" cy="149.15" r="15.95"/><path class="cls-9" d="M484.62,96a288.69,288.69,0,0,0-43.29-3.54A285.13,285.13,0,0,0,398.28,96c-11.52,1.77-10.28,8.4-10.28,26.58v27c0,29.81,23.73,54.22,53.5,54.46,30.12-.24,53.5-24.65,53.5-54.46v-27C495,104.39,496.14,97.76,484.62,96Z"/><path class="cls-42" d="M475,166.87c-8.86,0-9.86-2.66-14.29-7.09a26.81,26.81,0,0,0-19.72-8,27.48,27.48,0,0,0-19.26,8c-4.43,4.43-5.2,7.09-14.06,7.09s-19.43-15.95-19.43-19.49l.91,15.95,7.1,16.83,8,8,16,11.52,11.29,3.54,9.52.87,10-.87,11.75-3.54,15.94-11.52,8-8,7.07-16.83.86-15.95C494.56,150.92,483.87,166.87,475,166.87Z"/><path class="cls-25" d="M423.74,174.84c0-9.09,7.93-16.83,17.72-16.83s18.61,7.74,18.61,16.83c0,1.34-.89,1.77-2.66,1.77h-31C424.62,176.61,423.74,176.21,423.74,174.84Z"/><polygon class="cls-26" points="457.41 176.62 426.4 176.62 423.74 173.96 426.4 166.87 457.41 166.87 460.06 173.96 457.41 176.62"/><circle class="cls-26" cx="414.44" cy="139.85" r="3.99"/><circle class="cls-26" cx="469.37" cy="139.85" r="3.99"/><rect class="cls-26" x="396.72" y="116.06" width="29.03" height="7.52" rx="3.76" ry="3.76" transform="translate(-15.25 80.08) rotate(-10.92)"/><rect class="cls-26" x="458.07" y="116.06" width="29.03" height="7.35" rx="3.68" ry="3.68" transform="translate(913.93 326.83) rotate(-169.08)"/><path class="cls-11" d="M496,133.29v16.32a56,56,0,0,1-1.63,14.68h5.32A57,57,0,0,0,502,149.61V133.29Z"/><path class="cls-11" d="M388,133.29v16.32c0,5.06-.12,9.68,1.18,14.68h-5.32A56.34,56.34,0,0,1,382,149.61V133.29Z"/><g class="cls-43"><path class="cls-34" d="M442.34,186.36c-5.06,0-7.09,2.66-7.09,2.66"/><path class="cls-34" d="M442.34,186.36c5.06,0,7.09,2.66,7.09,2.66"/></g><path class="cls-11" d="M398,101.3a267.67,267.67,0,0,1,86.83,0c9.44,1.45,10.55,6.17,10.64,17.83.06-15.59.12-21.49-10.64-23.14A267.67,267.67,0,0,0,398,96c-10.76,1.66-10.69,7.55-10.64,23.14C387.5,107.47,388.61,102.76,398,101.3Z"/></g><polyline class="cls-13" points="369.69 108.39 370.58 107.51 369.69 97.76 383.87 92.44 398.04 88.9 425.51 86.24 443.23 85.36 465.38 86.24 486.64 88.9 498.94 91.56 513 97.76 513 107.29 518.54 107.29 522 103.08 522 88.9 520.27 76.5 515.86 71.18 510.56 65.86 508.79 61.43 499.05 49.92 480.44 38.4 467.15 34.84 450.32 31.29 439.69 31.29 418.42 33.96 404.25 40.16 386.53 49.91 376.78 59.66 371.46 70.29 365.46 74.72 363 82.7 363 96.87 364.57 104.85 366.25 107.51 369.69 108.39"/><path class="cls-1" d="M442.34,85.36c-47,0-62.91,8.86-70,11.52-2.62,1-4.43,2.66-4.43,5.32"/><path class="cls-1" d="M442.34,85.36c47,0,62.91,8.86,70,11.52,2.62,1,4.43,2.66,4.43,5.32"/><path class="cls-5" d="M370.78,108.39c-5.32,0-7.78-3.54-7.78-9.75V85.36c0-4.43,1.57-11.52,8.66-15.06h0c7.09-2.66,23.92-11.52,70.88-11.52"/><path class="cls-5" d="M514.07,108.39c5.32,0,7.93-3.54,7.93-9.75V85.36c0-4.43-1.73-11.52-8.82-15.06h0c-7.09-2.66-23.92-11.52-70.88-11.52"/><path class="cls-44" d="M513.84,70.46c-9.88-22.74-37.94-39.15-71-39.15-32.45,0-60.05,15.77-70.44,37.81"/><line class="cls-15" x1="371" y1="70.29" x2="371" y2="96.29"/><line class="cls-15" x1="384" y1="67.29" x2="384" y2="93.29"/><line class="cls-15" x1="397" y1="64.29" x2="397" y2="89.29"/><line class="cls-15" x1="410" y1="61.29" x2="410" y2="86.29"/><line class="cls-15" x1="423" y1="60.29" x2="423" y2="84.29"/><line class="cls-15" x1="436" y1="60.29" x2="436" y2="84.29"/><line class="cls-15" x1="513" y1="70.29" x2="513" y2="96.29"/><line class="cls-15" x1="500" y1="67.29" x2="500" y2="93.29"/><line class="cls-15" x1="487" y1="64.29" x2="487" y2="89.29"/><line class="cls-15" x1="474" y1="61.29" x2="474" y2="86.29"/><line class="cls-15" x1="461" y1="60.29" x2="461" y2="84.29"/><line class="cls-15" x1="448" y1="60.29" x2="448" y2="84.29"/></g></g></svg>