<svg xmlns="http://www.w3.org/2000/svg" width="19" height="15" viewBox="0 0 19 15"><path fill="#1da1f2" d="M5.98 15c7.16 0 11.09-5.77 11.09-10.78l-.01-.49A7.69 7.69 0 0 0 19 1.77a7.9 7.9 0 0 1-2.24.6 3.82 3.82 0 0 0 1.71-2.1c-.76.45-1.6.76-2.47.92a4 4 0 0 0-4.68-.74 3.75 3.75 0 0 0-1.96 4.2A11.16 11.16 0 0 1 1.32.69a3.74 3.74 0 0 0 1.21 5.06 3.9 3.9 0 0 1-1.77-.48v.05c0 1.8 1.31 3.36 3.13 3.71-.58.16-1.18.18-1.76.07a3.89 3.89 0 0 0 3.64 2.63A7.95 7.95 0 0 1 0 13.3 11.32 11.32 0 0 0 5.98 15"/></svg>